<?xml version="1.0" encoding="UTF-8"?>
<COLLADA xmlns="http://www.collada.org/2005/11/COLLADASchema" version="1.4.1">
<!--
# File generated by ImageToStl.com - Free Image and 3D model conversion tools
-->
  <asset>
    <contributor>
      <author>ImageToStl.com</author>
      <authoring_tool>ImageToStl.com</authoring_tool>
    </contributor>
    <created>2025-11-25T11:07:58</created>
    <modified>2025-11-25T11:07:58</modified>
    <up_axis>Z_UP</up_axis>
  </asset>
  <library_effects>
    <effect id="effect_0">
        <profile_COMMON>
          <technique sid="common">
            <phong>
              <diffuse>
                <color>0.85 0.85 0.85 1</color>
              </diffuse>
              <specular>
                <color>0.05 0.05 0.05 1</color>
              </specular>
              <shininess>
                <float>64</float>
              </shininess>
            </phong>
          </technique>
        </profile_COMMON>
    </effect>
  </library_effects>
  <library_materials>
    <material id="mat_0">
      <instance_effect url="#effect_0"/>
    </material>
  </library_materials>
  <library_geometries>
    <geometry id="geometry_31fa01ce_a168_4126_8e95_db57ea90f382">
      <mesh>
        <source id="pos_0">
          <float_array id="pos_0-array" count="2244">0.00667 0.00012154 0.02478406 0.00667 0.00254154 0.02478406 0.00667 0.00262154 0.02470406 0.00667 0.01232154 0.00558216 0.00667 -0.00037846 0.00558216 0.00667 0.00432154 0.00736025 0.00667 0.00012154 0.00736025 0.00667 0.00262154 0.01086025 0.00667 0.00254154 0.01078025 0.00667 0.00262154 0.01186025 0.00667 0.00012154 0.01078025 0.00667 -0.00187846 0.01186025 0.00667 -0.00187846 0.00708216 0.00667 0.00432154 0.02820406 0.00667 0.00012154 0.02820406 0.00667 -0.00037846 0.02998216 0.00667 0.01410154 0.02998216 0.00667 0.01232154 0.02820406 0.00667 0.01232154 0.02998216 0.00667 0.00632154 0.02820406 0.00667 0.00262154 0.02370406 0.00667 -0.00187846 0.02370406 0.00667 -0.00187846 0.02848216 0.00667 0.01410154 0.00798757 0.00667 0.01410154 0.00558216 0.00667 0.01232154 0.00736025 0.00667 0.00632154 0.00736025 0.00667 0.01410154 0.02757674 0.00667 0.01410154 0.02360087 0.00667 0.01410154 0.01196345 0.02667 0.00012154 0.01078025 0.02667 0.00254154 0.01078025 0.02667 0.00262154 0.01086025 0.02667 0.00410154 0.00558216 0.02667 0.00410154 0.00736025 0.02667 -0.00037846 0.00558216 0.02667 0.00012154 0.00736025 0.02667 0.00262154 0.01186025 0.02667 -0.00187846 0.01186025 0.02667 -0.00187846 0.00708216 0.01667 0.01410154 0.01114473 0.01348871 0.01410154 0.01196345 0.020585 0.01410154 0.01196345 0.01467799 0.01410154 0.02236821 0.01351456 0.01410154 0.02166071 0.01348871 0.01410154 0.02360087 0.01926792 0.01410154 0.01351006 0.02032418 0.01410154 0.01436939 0.00875305 0.01410154 0.00474894 0.01348871 0.01410154 0.00474894 0.01348871 0.01410154 0.00285467 0.01267 0.01410154 0.02800875 0.01348871 0.01410154 0.02800875 0.01348871 0.01410154 0.02757674 0.018975 0.01410154 0.03302807 0.01845 0.01410154 0.03316874 0.020585 0.01410154 0.03357545 0.02719831 0.01410154 0.00798757 0.02707166 0.01410154 0.01132598 0.02845 0.01410154 0.00994764 0.02682888 0.01410154 0.01168934 0.020585 0.01410154 0.00798757 0.02674362 0.01410154 0.01211794 0.02674362 0.01410154 0.01321809 0.02110943 0.01410154 0.01548183 0.02156542 0.01410154 0.01676488 0.02165834 0.01410154 0.01812337 0.02674362 0.01410154 0.02321783 0.02845 0.01410154 0.02045931 0.02845 0.01410154 0.01597662 0.02775712 0.01410154 0.02193774 0.02775712 0.01410154 0.01449818 0.02845 0.01410154 0.02757674 0.02845 0.01410154 0.02561667 0.02674362 0.01410154 0.02391029 0.01565323 0.01410154 0.03357545 0.01667 0.01410154 0.03398216 0.020585 0.01410154 0.03398216 0.01754067 0.01410154 0.03159374 0.01348871 0.01410154 0.03081538 0.0174 0.01410154 0.03211875 0.01348871 0.01410154 0.03270964 0.01754067 0.01410154 0.03264374 0.017925 0.01410154 0.03302807 0.017925 0.01410154 0.03120942 0.01845 0.01410154 0.03106874 0.020585 0.01410154 0.03081538 0.018975 0.01410154 0.03120942 0.01935933 0.01410154 0.03159374 0.0195 0.01410154 0.03211875 0.01935933 0.01410154 0.03264374 0.01348871 0.01410154 0.03056202 0.01267 0.01410154 0.03056202 0.00875305 0.01410154 0.03081538 0.01203168 0.01410154 0.03039098 0.0115644 0.01410154 0.0299237 0.01139337 0.01410154 0.02928538 0.0115644 0.01410154 0.02864707 0.01203168 0.01410154 0.02817979 0.0115644 0.01410154 0.00564062 0.01139337 0.01410154 0.00627893 0.0115644 0.01410154 0.00691725 0.01203168 0.01410154 0.00738453 0.01935933 0.01410154 0.00292057 0.0195 0.01410154 0.00344557 0.020585 0.01410154 0.00474894 0.01845 0.01410154 0.00449557 0.01935933 0.01410154 0.00397057 0.018975 0.01410154 0.0043549 0.017925 0.01410154 0.0043549 0.01754067 0.01410154 0.00397057 0.0174 0.01410154 0.00344557 0.01667 0.01410154 0.00158216 0.01754067 0.01410154 0.00292057 0.018975 0.01410154 0.00253624 0.020585 0.01410154 0.00158216 0.01845 0.01410154 0.00239557 0.017925 0.01410154 0.00253624 0.01223057 0.01410154 0.01548183 0.01301582 0.01410154 0.01436939 0.01407208 0.01410154 0.01351006 0.01532102 0.01410154 0.01296757 0.01667 0.01410154 0.01278216 0.01801898 0.01410154 0.01296757 0.01258515 0.01410154 0.02066556 0.0119587 0.01410154 0.01945656 0.01168166 0.01410154 0.01812337 0.01177458 0.01410154 0.01676488 0.020585 0.01410154 0.02360087 0.02075485 0.01410154 0.02066556 0.01982544 0.01410154 0.02166071 0.01866201 0.01410154 0.02236821 0.01735083 0.01410154 0.02273559 0.01598917 0.01410154 0.02273559 0.02530831 0.01410154 0.00517334 0.02719831 0.01410154 0.00474894 0.02467 0.01410154 0.0050023 0.02577559 0.01410154 0.00564062 0.02594663 0.01410154 0.00627893 0.02577559 0.01410154 0.00691725 0.01203168 0.01410154 0.00517334 0.01267 0.01410154 0.0050023 0.01348871 0.01410154 0.0050023 0.020585 0.01410154 0.0050023 0.02530831 0.01410154 0.00738453 0.02467 0.01410154 0.00755556 0.020585 0.01410154 0.00755556 0.01348871 0.01410154 0.00798757 0.01348871 0.01410154 0.00755556 0.01267 0.01410154 0.00755556 0.02594663 0.01410154 0.02928538 0.02577559 0.01410154 0.0299237 0.02719831 0.01410154 0.03081538 0.02530831 0.01410154 0.03039098 0.02467 0.01410154 0.03056202 0.02577559 0.01410154 0.02864707 0.02719831 0.01410154 0.02757674 0.02530831 0.01410154 0.02817979 0.020585 0.01410154 0.02757674 0.020585 0.01410154 0.02800875 0.02467 0.01410154 0.02800875 0.020585 0.01410154 0.03056202 0.01803258 0.01410154 0.00978216 0.01785002 0.01410154 0.01046345 0.01735129 0.01410154 0.01096218 0.01785002 0.01410154 0.00910087 0.01598871 0.01410154 0.01096218 0.01548997 0.01410154 0.01046345 0.01530742 0.01410154 0.00978216 0.01548997 0.01410154 0.00910087 0.01598871 0.01410154 0.00860213 0.01667 0.01410154 0.00841958 0.01735129 0.01410154 0.00860213 0.01667 0.01410154 0.02714473 0.01598871 0.01410154 0.02696218 0.01785002 0.01410154 0.02510087 0.01803258 0.01410154 0.02578216 0.01785002 0.01410154 0.02646345 0.01735129 0.01410154 0.02696218 0.01735129 0.01410154 0.02460213 0.01667 0.01410154 0.02441958 0.01598871 0.01410154 0.02460213 0.01548997 0.01410154 0.02646345 0.01530742 0.01410154 0.02578216 0.01548997 0.01410154 0.02510087 0.02719831 0.01410154 0.00158216 0.02719831 0.01410154 0.03357545 0.02719831 0.01410154 0.03398216 0.02845 0.01410154 0.00798757 0.02845 0.01410154 0.00474894 0.02845 0.01410154 0.00158216 0.0213813 0.01410154 0.01945656 0.02674362 0.01410154 0.02360087 0.02845 0.01410154 0.03081538 0.02845 0.01410154 0.03357545 0.02845 0.01410154 0.03398216 0.0174 0.01232154 0.00344557 0.01754067 0.01232154 0.00397057 0.01740332 0.01232154 0.00336216 0.01667 0.01232154 0.00336216 0.01667 0.01232154 0.00158216 0.02667 0.01232154 0.00558216 0.01935933 0.01232154 0.00397057 0.02667 0.01232154 0.00336216 0.0195 0.01232154 0.00344557 0.01949668 0.01232154 0.00336216 0.017925 0.01232154 0.0043549 0.01845 0.01232154 0.00449557 0.018975 0.01232154 0.0043549 0.02141582 0.00410154 0.00158216 0.02845 0.00410154 0.00158216 0.01571329 0.00632154 0.02009186 0.01490223 0.00632154 0.01954992 0.02845 0.00632154 0.00994764 0.02845 0.00632154 0.00736025 0.02707166 0.00632154 0.01132598 0.02682888 0.00632154 0.01168934 0.02845 0.00632154 0.02820406 0.02845 0.00632154 0.02561667 0.02674362 0.00632154 0.02391029 0.01917 0.00632154 0.01778216 0.0189797 0.00632154 0.01873887 0.01843777 0.00632154 0.01954992 0.01762671 0.00632154 0.02009186 0.01667 0.00632154 0.02028216 0.01490223 0.00632154 0.01601439 0.01571329 0.00632154 0.01547246 0.01667 0.00632154 0.01528216 0.01762671 0.00632154 0.01547246 0.02674362 0.00632154 0.01211794 0.01843777 0.00632154 0.01601439 0.0189797 0.00632154 0.01682545 0.0143603 0.00632154 0.01873887 0.01417 0.00632154 0.01778216 0.0143603 0.00632154 0.01682545 0.02682888 0.00432154 0.01168934 0.02674362 0.00432154 0.01211794 0.02845 0.00432154 0.02561667 0.02845 0.00432154 0.02820406 0.02674362 0.00432154 0.02391029 0.02674362 0.00432154 0.02078216 0.01493795 0.00432154 0.02078216 0.02845 0.00432154 0.00736025 0.02845 0.00432154 0.00994764 0.02707166 0.00432154 0.01132598 0.0132059 0.00432154 0.01778216 0.01493795 0.00432154 0.01478216 0.02674362 0.00432154 0.01478216 0.01753603 0.00482154 0.01928216 0.02674362 0.00482154 0.02078216 0.01493795 0.00482154 0.02078216 0.02674362 0.00482154 0.01478216 0.01840205 0.00482154 0.01778216 0.01753603 0.00482154 0.01628216 0.01493795 0.00482154 0.01478216 0.01580397 0.00482154 0.01628216 0.0132059 0.00482154 0.01778216 0.01493795 0.00482154 0.01778216 0.01580397 0.00482154 0.01928216 0.02674362 0.01232154 0.02391029 0.02845 0.01232154 0.02561667 0.02845 0.01232154 0.02820406 0.01801898 0.01232154 0.01296757 0.01667 0.01232154 0.01278216 0.02845 0.01232154 0.00736025 0.02845 0.01232154 0.00994764 0.01866201 0.01232154 0.02236821 0.01982544 0.01232154 0.02166071 0.02674362 0.01232154 0.02321783 0.02075485 0.01232154 0.02066556 0.02775712 0.01232154 0.02193774 0.0119587 0.01232154 0.01945656 0.01258515 0.01232154 0.02066556 0.01598917 0.01232154 0.02273559 0.01735083 0.01232154 0.02273559 0.01926792 0.01232154 0.01351006 0.02682888 0.01232154 0.01168934 0.02707166 0.01232154 0.01132598 0.0213813 0.01232154 0.01945656 0.02674362 0.01232154 0.01321809 0.02775712 0.01232154 0.01449818 0.01351456 0.01232154 0.02166071 0.01467799 0.01232154 0.02236821 0.02165834 0.01232154 0.01812337 0.02156542 0.01232154 0.01676488 0.02674362 0.01232154 0.01211794 0.02110943 0.01232154 0.01548183 0.02032418 0.01232154 0.01436939 0.01532102 0.01232154 0.01296757 0.01407208 0.01232154 0.01351006 0.01301582 0.01232154 0.01436939 0.01223057 0.01232154 0.01548183 0.01177458 0.01232154 0.01676488 0.01168166 0.01232154 0.01812337 0.02845 0.01232154 0.01597662 0.02845 0.01232154 0.02045931 0.02845 0.00910154 0.00552216 0.02845 0.00857654 0.00356283 0.02845 0.00819221 0.00394716 0.02845 0.00410154 0.00736025 0.02845 0.00910154 0.00342216 0.02845 0.00962654 0.00356283 0.02845 0.00962654 0.00538148 0.02845 0.01001087 0.00499716 0.02845 0.01015154 0.00447216 0.02845 0.01001087 0.00394716 0.02845 0.00805154 0.00447216 0.02845 0.00819221 0.00499716 0.02845 0.00857654 0.00538148 0.02667 0.00262154 0.02470406 0.02667 0.00254154 0.02478406 0.02667 0.00262154 0.02370406 0.02667 0.00012154 0.02478406 0.02667 -0.00187846 0.02370406 0.02667 0.00012154 0.02820406 0.02667 -0.00187846 0.02848216 0.02667 0.00410154 0.02820406 0.02667 0.00410154 0.02998216 0.02667 -0.00037846 0.02998216 0.01753603 0.00979154 0.01628216 0.01840205 0.00979154 0.01778216 0.01580397 0.00979154 0.01628216 0.01493795 0.00979154 0.01778216 0.01580397 0.00979154 0.01928216 0.01753603 0.00979154 0.01928216 0.02667 0.01232154 0.02998216 0.01571329 0.00979154 0.02009186 0.01490223 0.00979154 0.01954992 0.0143603 0.00979154 0.01873887 0.01417 0.00979154 0.01778216 0.0143603 0.00979154 0.01682545 0.01490223 0.00979154 0.01601439 0.01571329 0.00979154 0.01547246 0.01667 0.00979154 0.01528216 0.01762671 0.00979154 0.01547246 0.01843777 0.00979154 0.01601439 0.0189797 0.00979154 0.01682545 0.01917 0.00979154 0.01778216 0.0189797 0.00979154 0.01873887 0.01843777 0.00979154 0.01954992 0.01762671 0.00979154 0.02009186 0.01667 0.00979154 0.02028216 0.02845 0.00410154 0.02820406 0.02667 0.00410154 0.00336216 0.01949668 0.01210154 0.00336216 0.02141582 0.00410154 0.00336216 0.01740332 0.01210154 0.00336216 0.01667 0.01232154 0.03398216 0.02141582 0.00410154 0.03398216 0.02845 0.00410154 0.03398216 0.02141582 0.00410154 0.03220216 0.02667 0.00410154 0.03220216 0.01667 0.01232154 0.03220216 0.01740332 0.01232154 0.03220216 0.01740332 0.01210154 0.03220216 0.01949668 0.01232154 0.03220216 0.02667 0.01232154 0.03220216 0.01949668 0.01210154 0.03220216 0.01935933 0.01232154 0.03159374 0.0195 0.01232154 0.03211875 0.017925 0.01232154 0.03120942 0.01845 0.01232154 0.03106874 0.018975 0.01232154 0.03120942 0.01754067 0.01232154 0.03159374 0.0174 0.01232154 0.03211875 0.02667 0.00857654 0.00538148 0.02667 0.00910154 0.00552216 0.02667 0.00962654 0.00538148 0.02667 0.01001087 0.00499716 0.02667 0.01015154 0.00447216 0.02667 0.01001087 0.00394716 0.02667 0.00819221 0.00394716 0.02667 0.00805154 0.00447216 0.02667 0.00819221 0.00499716 0.02667 0.00857654 0.00356283 0.02667 0.00910154 0.00342216 0.02667 0.00962654 0.00356283 0.02667 0.00857654 0.03200148 0.02667 0.00910154 0.03214216 0.02667 0.00962654 0.03200148 0.02667 0.00819221 0.03056716 0.02667 0.00805154 0.03109216 0.02667 0.00819221 0.03161716 0.02667 0.00857654 0.03018283 0.02667 0.00910154 0.03004216 0.02667 0.00962654 0.03018283 0.02667 0.01001087 0.03056716 0.02667 0.01015154 0.03109216 0.02667 0.01001087 0.03161716 0.02845 0.01001087 0.03161716 0.02845 0.01015154 0.03109216 0.02845 0.00857654 0.03018283 0.02845 0.00819221 0.03056716 0.02845 0.00805154 0.03109216 0.02845 0.00819221 0.03161716 0.02845 0.00857654 0.03200148 0.02845 0.00910154 0.03214216 0.02845 0.00962654 0.03200148 0.02845 0.01001087 0.03056716 0.02845 0.00962654 0.03018283 0.02845 0.00910154 0.03004216 0.01667 0.01335154 0.02441958 0.01598871 0.01335154 0.02460213 0.01548997 0.01335154 0.02510087 0.01530742 0.01335154 0.02578216 0.01548997 0.01335154 0.02646345 0.01598871 0.01335154 0.02696218 0.01667 0.01335154 0.02714473 0.01735129 0.01335154 0.02696218 0.01785002 0.01335154 0.02646345 0.01803258 0.01335154 0.02578216 0.01785002 0.01335154 0.02510087 0.01735129 0.01335154 0.02460213 0.01667 0.01335154 0.02578216 0.01667 0.01335154 0.00841958 0.01598871 0.01335154 0.00860213 0.01548997 0.01335154 0.00910087 0.01530742 0.01335154 0.00978216 0.01548997 0.01335154 0.01046345 0.01598871 0.01335154 0.01096218 0.01667 0.01335154 0.01114473 0.01735129 0.01335154 0.01096218 0.01785002 0.01335154 0.01046345 0.01803258 0.01335154 0.00978216 0.01785002 0.01335154 0.00910087 0.01735129 0.01335154 0.00860213 0.01667 0.01335154 0.00978216 0.02467 0.01335154 0.00755556 0.02530831 0.01335154 0.00738453 0.02577559 0.01335154 0.00691725 0.02594663 0.01335154 0.00627893 0.02577559 0.01335154 0.00564062 0.02530831 0.01335154 0.00517334 0.02467 0.01335154 0.0050023 0.01267 0.01335154 0.00755556 0.01267 0.01335154 0.0050023 0.01203168 0.01335154 0.00517334 0.0115644 0.01335154 0.00564062 0.01139337 0.01335154 0.00627893 0.0115644 0.01335154 0.00691725 0.01203168 0.01335154 0.00738453 0.02467 0.01335154 0.03056202 0.02530831 0.01335154 0.03039098 0.02577559 0.01335154 0.0299237 0.02594663 0.01335154 0.02928538 0.02577559 0.01335154 0.02864707 0.02530831 0.01335154 0.02817979 0.02467 0.01335154 0.02800875 0.01267 0.01335154 0.03056202 0.01267 0.01335154 0.02800875 0.01203168 0.01335154 0.02817979 0.0115644 0.01335154 0.02864707 0.01139337 0.01335154 0.02928538 0.0115644 0.01335154 0.0299237 0.01203168 0.01335154 0.03039098 0.01935933 0.01210154 0.03264374 0.01754067 0.01210154 0.03264374 0.017925 0.01210154 0.03302807 0.01845 0.01210154 0.03316874 0.018975 0.01210154 0.03302807 0.01754067 0.01210154 0.00292057 0.01935933 0.01210154 0.00292057 0.018975 0.01210154 0.00253624 0.01845 0.01210154 0.00239557 0.017925 0.01210154 0.00253624 0.014 0.01410154 -0.00019284 0.014 0.01588154 -0.00019284 0.02934 0.01410154 -0.00019284 0.02934 0.01588154 -0.00019284 0.02934 0.01588154 0.03575716 0.02934 0.01410154 0.03575716 0 0.01410154 0.03175716 0 0.01588154 0.03175716 0 0.01588154 0.02997716 0 0.01588154 0.01072182 0 0.01410154 0.00380716 0 0.01588154 0.0248425 0 0.01588154 0.0266225 0 0.01588154 0.00894182 0 0.01588154 0.00558716 0 0.01588154 0.00380716 0.00575213 0.03088154 0.01072182 0.00777911 0.01588154 0.01072182 0.00777911 0.06177154 0.01072182 0.00576045 0.06177154 0.01072182 0.00575213 0.06177154 0.01072182 0.00576045 0.06177154 0.00894182 0.00777911 0.06177154 0.00894182 0.00777911 0.01588154 0.00894182 0.00575213 0.06177154 0.00894182 0.00575213 0.03088154 0.00894182 0.00575213 0.03088154 0.0266225 0.00777911 0.01588154 0.0266225 0.00777911 0.06177154 0.0266225 0.00576045 0.06177154 0.0266225 0.00575213 0.06177154 0.0266225 0.00576045 0.06177154 0.0248425 0.00777911 0.06177154 0.0248425 0.00777911 0.01588154 0.0248425 0.00575213 0.06177154 0.0248425 0.00575213 0.03088154 0.0248425 0.00576045 0.06177154 0.03000216 0.00778 0.06177154 0.03000216 0.00576045 0.06177154 0.00556216 0.00778 0.06177154 0.00556216 0.004 0.0262974 0.00380716 0.00404388 0.02641165 0.00378961 0.00404388 0.01588154 0.00378961 0.004 0.01410154 0.00380716 0.00576045 0.01588154 0.00378216 0.00576045 0.03088154 0.00378216 0.00576045 0.01588154 0.00558716 0.00576045 0.03088154 0.00558716 0.01157955 0.01588154 0.00378216 0.02556 0.01588154 0.0266225 0.00956 0.01588154 0.0266225 0.01157955 0.01588154 0.03000216 0.00956 0.01588154 0.03000216 0.00956 0.01588154 0.00556216 0.00956 0.01588154 0.00894182 0.01157955 0.01588154 0.00556216 0.02556 0.01588154 0.00894182 0.00404388 0.01588154 0.03177471 0.014 0.01588154 0.03575716 0.00576045 0.01588154 0.03178216 0.01157955 0.01588154 0.03178216 0.02024933 0.01588154 0.03159216 0.02039 0.01588154 0.03211716 0.02024933 0.01588154 0.03264216 0.02556 0.01588154 0.01072182 0.02024933 0.01588154 0.00397216 0.019865 0.01588154 0.00435648 0.01934 0.01588154 0.00449716 0.019865 0.01588154 0.03302648 0.01934 0.01588154 0.03316716 0.01988394 0.01588154 0.01395193 0.02100013 0.01588154 0.01528216 0.018815 0.01588154 0.03302648 0.01843067 0.01588154 0.03264216 0.01829 0.01588154 0.03211716 0.01843067 0.01588154 0.03159216 0.018815 0.01588154 0.03120783 0.01934 0.01588154 0.03106716 0.019865 0.01588154 0.03120783 0.02039 0.01588154 0.00344716 0.02024933 0.01588154 0.00292216 0.02556 0.01588154 0.0248425 0.01667 0.01588154 0.02278216 0.00956 0.01588154 0.0248425 0.0149599 0.01588154 0.02248062 0.01345606 0.01588154 0.02161238 0.00956 0.01588154 0.01072182 0.01233987 0.01588154 0.01528216 0.01345606 0.01588154 0.01395193 0.02159404 0.01588154 0.01691392 0.02159404 0.01588154 0.0186504 0.02100013 0.01588154 0.02028216 0.01233987 0.01588154 0.02028216 0.01174596 0.01588154 0.0186504 0.01174596 0.01588154 0.01691392 0.0149599 0.01588154 0.01308369 0.01667 0.01588154 0.01278216 0.0183801 0.01588154 0.01308369 0.01988394 0.01588154 0.02161238 0.0183801 0.01588154 0.02248062 0.01843067 0.01588154 0.00292216 0.01829 0.01588154 0.00344716 0.01843067 0.01588154 0.00397216 0.018815 0.01588154 0.00435648 0.018815 0.01588154 0.00253783 0.01934 0.01588154 0.00239716 0.019865 0.01588154 0.00253783 0.00576045 0.01588154 0.02997716 0.00576045 0.01588154 0.03000216 0.00778 0.01588154 0.03000216 0.00778 0.01588154 0.00556216 0.00576045 0.01588154 0.00556216 0.004 0.01410154 0.03175716 0.01829 0.01410154 0.03211716 0.01843067 0.01410154 0.03264216 0.014 0.01410154 0.03575716 0.02024933 0.01410154 0.00292216 0.019865 0.01410154 0.00253783 0.01934 0.01410154 0.00239716 0.018815 0.01410154 0.00253783 0.01843067 0.01410154 0.00292216 0.01233987 0.01410154 0.02028216 0.018815 0.01410154 0.03302648 0.01934 0.01410154 0.03316716 0.019865 0.01410154 0.03302648 0.02024933 0.01410154 0.03264216 0.018815 0.01410154 0.00435648 0.02159404 0.01410154 0.01691392 0.02100013 0.01410154 0.01528216 0.01843067 0.01410154 0.03159216 0.018815 0.01410154 0.03120783 0.0149599 0.01410154 0.02248062 0.01667 0.01410154 0.02278216 0.01934 0.01410154 0.03106716 0.01233987 0.01410154 0.01528216 0.01174596 0.01410154 0.01691392 0.01174596 0.01410154 0.0186504 0.0149599 0.01410154 0.01308369 0.01829 0.01410154 0.00344716 0.01843067 0.01410154 0.00397216 0.0183801 0.01410154 0.01308369 0.01988394 0.01410154 0.01395193 0.019865 0.01410154 0.03120783 0.0183801 0.01410154 0.02248062 0.01988394 0.01410154 0.02161238 0.01345606 0.01410154 0.01395193 0.02159404 0.01410154 0.0186504 0.01345606 0.01410154 0.02161238 0.01934 0.01410154 0.00449716 0.019865 0.01410154 0.00435648 0.02024933 0.01410154 0.00397216 0.02039 0.01410154 0.00344716 0.02100013 0.01410154 0.02028216 0.02024933 0.01410154 0.03159216 0.02039 0.01410154 0.03211716 0.00404388 0.02641165 0.03177471 0.004 0.0262974 0.03175716 0.00576045 0.03088154 0.03000216 0.00576045 0.06169959 0.0315538 0.00576045 0.06267286 0.03090348 0.00576045 0.06055154 0.03178216 0.00576045 0.03088154 0.03178216 0.01157955 0.06055154 0.03178216 0.00956 0.06177154 0.03000216 0.00956 0.06088154 0.0266225 0.00956 0.06088154 0.0248425 0.00956 0.06177154 0.00556216 0.00956 0.06088154 0.00894182 0.00956 0.06088154 0.01072182 0.00576045 0.06055154 0.00378216 0.01157955 0.06055154 0.00378216 0.00576045 0.03088154 0.00556216 0.00576045 0.06169959 0.00401052 0.00576045 0.06267286 0.00466084 0.01157955 0.06177154 0.03000216 0.01157955 0.06169959 0.0315538 0.01157955 0.06267286 0.03090348 0.01157955 0.06169959 0.00401052 0.01157955 0.06267286 0.00466084 0.01157955 0.06177154 0.00556216 0.01157955 0.06332318 0.02993021 0.01157955 0.06355154 0.02878216 0.01157955 0.06355154 0.00678216 0.01157955 0.06332318 0.00563411 0.00576045 0.06355154 0.02878216 0.00576045 0.06355154 0.00678216 0.00576045 0.06332318 0.00563411 0.00576045 0.06332318 0.02993021 0.00576045 0.03088154 0.02997716 0.02734 0.01410154 -0.00019284 0.02734 0.01410154 0.00847216 0.02934 0.01410154 0.00847216 0.02734 0.00610154 -0.00019284 0.02934 0.00610154 -0.00019284 0.02734 0.00610154 0.00847216 0.02934 0.00610154 0.00847216 0.02734 0.00910154 0.00552216 0.02934 0.00910154 0.00552216 0.02734 0.00877707 0.00547077 0.02934 0.00877707 0.00547077 0.02734 0.00848437 0.00532163 0.02934 0.00848437 0.00532163 0.02734 0.00825207 0.00508933 0.02934 0.00825207 0.00508933 0.02734 0.00810293 0.00479663 0.02934 0.00810293 0.00479663 0.02734 0.00805154 0.00447216 0.02934 0.00805154 0.00447216 0.02734 0.00810293 0.00414769 0.02934 0.00810293 0.00414769 0.02734 0.00825207 0.00385498 0.02934 0.00825207 0.00385498 0.02734 0.00848437 0.00362269 0.02934 0.00848437 0.00362269 0.02734 0.00877707 0.00347355 0.02934 0.00877707 0.00347355 0.02734 0.00910154 0.00342216 0.02934 0.00910154 0.00342216 0.02734 0.00942601 0.00347355 0.02934 0.00942601 0.00347355 0.02734 0.00971871 0.00362269 0.02934 0.00971871 0.00362269 0.02734 0.00995101 0.00385498 0.02934 0.00995101 0.00385498 0.02734 0.01010015 0.00414769 0.02934 0.01010015 0.00414769 0.02734 0.01015154 0.00447216 0.02934 0.01015154 0.00447216 0.02734 0.01010015 0.00479663 0.02934 0.01010015 0.00479663 0.02734 0.00995101 0.00508933 0.02934 0.00995101 0.00508933 0.02734 0.00971871 0.00532163 0.02934 0.00971871 0.00532163 0.02734 0.00942601 0.00547077 0.02934 0.00942601 0.00547077 0.02734 0.00610154 0.03575716 0.02734 0.00610154 0.02709216 0.02934 0.00610154 0.03575716 0.02934 0.00610154 0.02709216 0.02734 0.01410154 0.03575716 0.02734 0.01410154 0.02709216 0.02934 0.01410154 0.02709216 0.02734 0.00910154 0.03214216 0.02934 0.00910154 0.03214216 0.02734 0.00877707 0.03209077 0.02934 0.00877707 0.03209077 0.02734 0.00848437 0.03194163 0.02934 0.00848437 0.03194163 0.02734 0.00825207 0.03170933 0.02934 0.00825207 0.03170933 0.02734 0.00810293 0.03141662 0.02934 0.00810293 0.03141662 0.02734 0.00805154 0.03109216 0.02934 0.00805154 0.03109216 0.02734 0.00810293 0.03076769 0.02934 0.00810293 0.03076769 0.02734 0.00825207 0.03047498 0.02934 0.00825207 0.03047498 0.02734 0.00848437 0.03024269 0.02934 0.00848437 0.03024269 0.02734 0.00877707 0.03009355 0.02934 0.00877707 0.03009355 0.02734 0.00910154 0.03004216 0.02934 0.00910154 0.03004216 0.02734 0.00942601 0.03009355 0.02934 0.00942601 0.03009355 0.02734 0.00971871 0.03024269 0.02934 0.00971871 0.03024269 0.02734 0.00995101 0.03047498 0.02934 0.00995101 0.03047498 0.02734 0.01010015 0.03076769 0.02934 0.01010015 0.03076769 0.02734 0.01015154 0.03109216 0.02934 0.01015154 0.03109216 0.02734 0.01010015 0.03141662 0.02934 0.01010015 0.03141662 0.02734 0.00995101 0.03170933 0.02934 0.00995101 0.03170933 0.02734 0.00971871 0.03194163 0.02934 0.00971871 0.03194163 0.02734 0.00942601 0.03209077 0.02934 0.00942601 0.03209077</float_array>
          <technique_common>
            <accessor source="#pos_0-array" count="2244" stride="3">
              <param name="X" type="float"/>
              <param name="Y" type="float"/>
              <param name="Z" type="float"/>
            </accessor>
          </technique_common>
        </source>
        <source id="norm_0">
          <float_array id="norm_0-array" count="771">-1 -0 0 1 0 -0 -0 0.70711 -0.7071 -0 1 -0 0 -1 0 -0 -0 -1 0 0 1 -0.86603 -0 0.5 0.86603 0 0.5 0.86603 0 -0.5 -0.86603 -0 -0.5 -0.19509 0 0.98079 -0.55557 -0 0.83147 -0.83147 -0 0.55557 -0.98079 -0 0.19509 -0.98079 -0 -0.19509 -0.83147 -0 -0.55557 -0.55557 -0 -0.83147 -0.19509 -0 -0.98079 0.19509 -0 -0.98079 0.55557 0 -0.83147 0.83147 0 -0.55557 0.98079 0 -0.19509 0.98079 0 0.19509 0.83147 0 0.55557 0.55557 0 0.83147 0.19509 0 0.98079 0.86603 0 -0.5 0.86603 0 0.5 0 0.70711 0.7071 -0 -0.70711 -0.70711 0 -0.70711 0.70711 -0.86603 -0.5 0 0.70711 0 -0.70711 0.78402 0 0.62074 0.90549 0 0.42436 0.90549 0 -0.42436 0.78402 0 -0.62074 0.70711 0 0.70711 0.98079 0 0.19509 0.83147 0 0.55557 -0.37139 -0 0.92848 -0.37139 0 0.92848 -0.37139 -0 0.92848 -0.37139 -0 0.92848 -0.37139 -0 0.92848 -0.37139 -0 -0.92848 -0.37139 0 -0.92848 -0.37139 -0 -0.92848 -0.37139 -0 -0.92848 0.13617 0 0.99069 0.3984 0 0.91721 0.63109 0 0.77571 0.81697 0 0.57668 0.94226 0 0.33488 0.99767 0 0.06824 0.97908 0 -0.20346 0.88788 0 -0.46007 0.73084 0 -0.68255 0.51958 0 -0.85442 0.2698 0 -0.96292 -0.2698 -0 -0.96292 -0.51958 -0 -0.85442 -0.73084 -0 -0.68255 -0.88788 -0 -0.46007 -0.97908 -0 -0.20346 -0.99767 -0 0.06824 -0.94226 -0 0.33488 -0.81697 -0 0.57668 -0.63109 -0 0.77571 -0.3984 -0 0.91721 -0.13617 0 0.99069 0.25882 0 0.96593 0.70711 0 0.70711 0.96593 0 0.25882 0.96593 0 -0.25882 0.70711 0 -0.70711 0.25882 0 -0.96593 -0.25882 -0 -0.96593 -0.70711 -0 -0.70711 -0.96593 -0 -0.25882 -0.96593 -0 0.25882 -0.70711 -0 0.70711 -0.25882 -0 0.96593 0.25882 0 0.96593 0.96593 0 0.25882 0.70711 0 -0.70711 0.25882 0 -0.96593 -0.25882 -0 -0.96593 -0.70711 -0 -0.70711 -0.96593 -0 0.25882 -0.70711 -0 0.70711 -0.25882 -0 0.96593 -0.25882 -0 -0.96593 -0.70711 -0 -0.70711 -0.96593 -0 -0.25882 -0.96593 -0 0.25882 -0.70711 -0 0.70711 -0.25882 -0 0.96593 0.25882 0 0.96593 0.96593 0 0.25882 0.96593 0 -0.25882 0.25882 0 -0.96593 -0.25882 -0 -0.96593 -0.96593 -0 -0.25882 -0.25882 -0 0.96593 0.25882 0 0.96593 0.70711 0 0.70711 0.96593 0 -0.25882 0.70711 0 -0.70711 0.25882 0 -0.96593 -0.95487 -0 -0.29701 0.96587 -0.01033 -0.25881 0.99921 0 -0.03975 0.96593 0 0.25882 0.25882 0 0.96593 -0.25882 -0 0.96593 -0.96593 -0 0.25882 -0.96593 -0 -0.25882 0.95487 0 -0.29701 0.25882 0 -0.96593 -0.25882 -0 -0.96593 -0.99696 -0.06709 -0.03966 0.95487 0 0.29701 -0.96587 -0.01033 0.25881 -0.99921 -0 0.03975 -0.96593 -0 -0.25882 -0.70711 -0 -0.70711 -0.25882 -0 -0.96593 0.25882 0 -0.96593 0.70711 0 -0.70711 0.96593 0 -0.25882 0.96593 0 0.25882 -0.95487 -0 0.29701 -0.70711 -0 0.70711 -0.25882 -0 0.96593 0.25882 0 0.96593 0.70711 0 0.70711 0.99696 -0.06709 0.03966 0 -0.25882 0.96593 0 -0.70711 0.70711 0 -0.96593 0.25882 -0 -0.96593 -0.25882 -0 -0.70711 -0.70711 -0 -0.25882 -0.96593 -0 0.25882 -0.96593 -0 0.70711 -0.70711 -0 0.96593 -0.25882 0 0.96593 0.25882 0 0.70711 0.70711 0 0.25882 0.96593 0 -0.25882 0.96593 0 -0.70711 0.70711 0 -0.96593 0.25882 -0 -0.96593 -0.25882 -0 -0.70711 -0.70711 -0 -0.25882 -0.96593 -0 0.25882 -0.96593 -0 0.70711 -0.70711 -0 0.96593 -0.25882 0 0.96593 0.25882 0 0.70711 0.70711 0 0.25882 0.96593 -0.37139 -0 -0.92848 -0.37139 0 -0.92848 -0.00434 -0 -0.99999 -0.37138 -0 0.92848 -0.37139 0 0.92848 -0.37139 -0 0.92848 0.17365 -0 -0.98481 0.5 0 -0.86603 0.76604 0 -0.64279 0.93969 0 -0.34202 0.93969 0 0.34202 0.76604 0 0.64279 0.5 0 0.86603 0.17365 0 0.98481 -0.17365 0 0.98481 -0.5 -0 0.86603 -0.76604 -0 0.64279 -0.93969 -0 0.34202 -0.93969 -0 -0.34202 -0.76604 -0 -0.64279 -0.5 -0 -0.86603 -0.17365 -0 -0.98481 0.96593 0 -0.25882 0.70711 0 0.70711 0.25882 0 0.96593 -0.25882 -0 0.96593 -0.70711 -0 0.70711 -0.70711 -0 -0.70711 -0.25882 -0 -0.96593 0.96593 0 0.25882 0.70711 0 0.70711 0.25882 0 0.96593 -0.25882 -0 0.96593 -0.70711 -0 0.70711 -0.96593 -0 0.25882 -0.70711 -0 -0.70711 -0.25882 -0 -0.96593 0.94221 0.33501 -0 0 0.98079 0.19509 0 0.83147 0.55557 0 0.55557 0.83147 0 0.19509 0.98079 -0 0.98079 -0.19509 -0 0.83147 -0.55557 -0 0.55557 -0.83147 -0 0.19509 -0.98079 -0.00434 0 0.99999 -0.93353 0.3585 0 -0.93353 0.3585 0 -0.93353 0.35851 -1E-05 -0.93353 0.3585 0 -0.93353 0.3585 0 -0.93353 0.3585 -0 -0.93353 0.3585 0 -0.93353 0.35851 1E-05 -0.9337 0.35805 0 -0 0.15643 -0.98769 -0 0.45399 -0.89101 -0 0.70711 -0.70711 -0 0.89101 -0.45399 -0 0.98769 -0.15643 0 0.98769 0.15643 0 0.89101 0.45399 0 0.70711 0.70711 0 0.45399 0.89101 0 0.15643 0.98769 0 -0.15643 0.98769 0 -0.45399 0.89101 0 -0.89101 0.45399 0 -0.98769 0.15644 -0 -0.98769 -0.15644 -0 -0.89101 -0.45399 -0 -0.45399 -0.89101 -0 -0.15644 -0.98769 -0 0.15643 -0.98769 -0 0.45399 -0.89101 -0 0.70711 -0.70711 -0 0.89101 -0.45399 -0 0.98769 -0.15643 0 0.98769 0.15643 0 0.89101 0.45399 0 0.70711 0.70711 0 0.45399 0.89101 0 0.15644 0.98769 0 -0.15644 0.98769 0 -0.45399 0.89101 0 -0.70711 0.70711 0 -0.89101 0.45399 0 -0.98769 0.15644 -0 -0.98769 -0.15644 -0 -0.89101 -0.45399 -0 -0.70711 -0.70711 -0 -0.45399 -0.89101 -0 -0.15643 -0.98769</float_array>
          <technique_common>
            <accessor source="#norm_0-array" count="771" stride="3">
              <param name="X" type="float"/>
              <param name="Y" type="float"/>
              <param name="Z" type="float"/>
            </accessor>
          </technique_common>
        </source>
        <vertices id="vert_0">
          <input semantic="POSITION" source="#pos_0"/>
        </vertices>
        <triangles count="1542" material="mat_0">
          <input semantic="VERTEX" source="#vert_0" offset="0"/>
          <input semantic="NORMAL" source="#norm_0" offset="1"/>
          <p>0 0 1 0 2 0 3 0 4 0 5 0 5 0 4 0 6 0 7 0 8 0 9 0 9 0 8 0 10 0 9 0 10 0 11 0 11 0 10 0 6 0 11 0 6 0 12 0 12 0 6 0 4 0 13 0 14 0 15 0 16 0 17 0 18 0 18 0 17 0 19 0 2 0 20 0 0 0 0 0 20 0 21 0 0 0 21 0 14 0 14 0 21 0 22 0 14 0 22 0 15 0 23 0 24 0 25 0 25 0 24 0 3 0 25 0 3 0 26 0 26 0 3 0 5 0 26 0 5 0 19 0 19 0 5 0 13 0 19 0 13 0 18 0 18 0 13 0 15 0 16 0 27 0 17 0 17 0 27 0 28 0 17 0 28 0 25 0 25 0 28 0 29 0 25 0 29 0 23 0 30 1 31 1 32 1 33 1 34 1 35 1 35 1 34 1 36 1 32 1 37 1 30 1 30 1 37 1 38 1 30 1 38 1 36 1 36 1 38 1 39 1 36 1 39 1 35 1 8 2 7 2 31 2 31 2 7 2 32 2 40 3 41 3 42 3 43 3 44 3 45 3 46 3 47 3 42 3 48 3 49 3 50 3 51 3 52 3 53 3 54 3 55 3 56 3 57 3 58 3 59 3 58 3 57 3 60 3 60 3 57 3 61 3 60 3 61 3 62 3 63 3 62 3 64 3 65 3 66 3 67 3 68 3 69 3 70 3 70 3 69 3 71 3 70 3 71 3 67 3 67 3 71 3 63 3 67 3 63 3 65 3 65 3 63 3 64 3 72 3 73 3 74 3 55 3 75 3 56 3 56 3 75 3 76 3 56 3 76 3 77 3 78 3 79 3 80 3 80 3 79 3 81 3 80 3 81 3 82 3 82 3 81 3 75 3 82 3 75 3 83 3 83 3 75 3 55 3 78 3 84 3 79 3 79 3 84 3 85 3 79 3 85 3 86 3 86 3 85 3 87 3 87 3 88 3 86 3 86 3 88 3 89 3 86 3 89 3 56 3 56 3 89 3 90 3 56 3 90 3 54 3 91 3 92 3 79 3 79 3 92 3 93 3 79 3 93 3 81 3 92 3 94 3 93 3 93 3 94 3 95 3 93 3 95 3 16 3 16 3 95 3 96 3 16 3 96 3 27 3 96 3 97 3 27 3 27 3 97 3 98 3 27 3 98 3 51 3 99 3 48 3 100 3 100 3 48 3 24 3 100 3 24 3 101 3 101 3 24 3 23 3 101 3 23 3 102 3 103 3 104 3 105 3 49 3 105 3 106 3 104 3 107 3 105 3 105 3 107 3 108 3 105 3 108 3 106 3 106 3 109 3 49 3 49 3 109 3 110 3 49 3 110 3 50 3 50 3 110 3 111 3 50 3 111 3 112 3 112 3 111 3 113 3 114 3 115 3 116 3 116 3 115 3 112 3 116 3 112 3 117 3 117 3 112 3 113 3 118 3 119 3 41 3 41 3 119 3 120 3 120 3 121 3 41 3 41 3 121 3 122 3 41 3 122 3 42 3 42 3 122 3 123 3 42 3 123 3 46 3 124 3 125 3 28 3 28 3 125 3 126 3 28 3 126 3 29 3 29 3 126 3 127 3 29 3 127 3 118 3 128 3 129 3 130 3 130 3 131 3 128 3 128 3 131 3 132 3 128 3 132 3 45 3 45 3 132 3 133 3 45 3 133 3 43 3 134 3 135 3 136 3 136 3 135 3 105 3 134 3 137 3 135 3 135 3 137 3 138 3 135 3 138 3 57 3 57 3 138 3 139 3 99 3 140 3 48 3 48 3 140 3 141 3 48 3 141 3 49 3 49 3 141 3 142 3 49 3 142 3 105 3 105 3 142 3 143 3 105 3 143 3 136 3 139 3 144 3 57 3 57 3 144 3 145 3 57 3 145 3 61 3 61 3 145 3 146 3 61 3 146 3 147 3 147 3 146 3 148 3 147 3 148 3 149 3 150 3 151 3 152 3 152 3 151 3 153 3 152 3 153 3 154 3 150 3 152 3 155 3 155 3 152 3 156 3 155 3 156 3 157 3 158 3 159 3 160 3 159 3 158 3 52 3 91 3 79 3 161 3 161 3 79 3 86 3 161 3 86 3 154 3 118 3 41 3 29 3 29 3 41 3 147 3 29 3 147 3 23 3 23 3 147 3 149 3 23 3 149 3 102 3 51 3 53 3 27 3 27 3 53 3 45 3 27 3 45 3 28 3 28 3 45 3 44 3 28 3 44 3 124 3 162 3 163 3 42 3 42 3 163 3 164 3 42 3 164 3 40 3 165 3 162 3 61 3 61 3 162 3 42 3 61 3 42 3 62 3 62 3 42 3 47 3 62 3 47 3 64 3 40 3 166 3 41 3 41 3 166 3 167 3 41 3 167 3 147 3 147 3 167 3 168 3 147 3 168 3 169 3 169 3 170 3 147 3 147 3 170 3 171 3 147 3 171 3 61 3 61 3 171 3 172 3 61 3 172 3 165 3 52 3 158 3 53 3 53 3 158 3 173 3 53 3 173 3 174 3 175 3 176 3 158 3 176 3 177 3 158 3 158 3 177 3 178 3 158 3 178 3 173 3 179 3 175 3 128 3 128 3 175 3 158 3 128 3 158 3 156 3 156 3 158 3 160 3 156 3 160 3 157 3 179 3 128 3 180 3 180 3 128 3 45 3 180 3 45 3 181 3 174 3 182 3 53 3 53 3 182 3 183 3 53 3 183 3 45 3 45 3 183 3 184 3 45 3 184 3 181 3 114 3 103 3 115 3 115 3 103 3 105 3 115 3 105 3 185 3 185 3 105 3 135 3 154 3 86 3 152 3 152 3 86 3 56 3 152 3 56 3 186 3 186 3 56 3 77 3 186 3 77 3 187 3 59 3 188 3 57 3 57 3 188 3 189 3 57 3 189 3 135 3 135 3 189 3 190 3 135 3 190 3 185 3 66 3 191 3 67 3 67 3 191 3 129 3 67 3 129 3 192 3 192 3 129 3 128 3 192 3 128 3 74 3 74 3 128 3 156 3 74 3 156 3 72 3 72 3 156 3 152 3 72 3 152 3 193 3 193 3 152 3 186 3 193 3 186 3 194 3 194 3 186 3 187 3 194 3 187 3 195 3 196 4 197 4 3 4 198 4 196 4 199 4 199 4 196 4 3 4 199 4 3 4 200 4 201 4 202 4 203 4 203 4 202 4 204 4 203 4 204 4 205 4 197 4 206 4 3 4 3 4 206 4 207 4 3 4 207 4 201 4 201 4 207 4 208 4 201 4 208 4 202 4 209 5 200 5 112 5 190 5 210 5 185 5 185 5 210 5 209 5 185 5 209 5 115 5 115 5 209 5 112 5 211 3 212 3 19 3 213 3 214 3 215 3 215 3 214 3 26 3 215 3 26 3 216 3 217 3 218 3 219 3 220 3 221 3 219 3 219 3 221 3 222 3 219 3 222 3 217 3 217 3 222 3 223 3 217 3 223 3 19 3 19 3 223 3 224 3 19 3 224 3 211 3 225 3 226 3 26 3 26 3 226 3 227 3 26 3 227 3 216 3 216 3 227 3 228 3 216 3 228 3 229 3 229 3 228 3 230 3 229 3 230 3 219 3 219 3 230 3 231 3 219 3 231 3 220 3 212 3 232 3 19 3 19 3 232 3 233 3 19 3 233 3 26 3 26 3 233 3 234 3 26 3 234 3 225 3 5 4 235 4 236 4 237 4 238 4 239 4 239 4 238 4 13 4 239 4 13 4 240 4 240 4 13 4 241 4 242 4 243 4 5 4 5 4 243 4 244 4 5 4 244 4 235 4 241 4 13 4 245 4 245 4 13 4 5 4 245 4 5 4 246 4 246 4 5 4 236 4 246 4 236 4 247 4 248 4 249 4 250 4 249 4 248 4 251 4 248 4 252 4 251 4 251 4 252 4 253 4 251 4 253 4 254 4 254 4 253 4 255 4 254 4 255 4 256 4 256 4 255 4 257 4 256 4 257 4 250 4 250 4 257 4 258 4 250 4 258 4 248 4 241 5 250 5 240 5 240 5 250 5 249 5 254 6 246 6 251 6 251 6 246 6 247 6 259 4 260 4 261 4 262 4 263 4 25 4 25 4 264 4 265 4 266 4 267 4 268 4 268 4 267 4 269 4 268 4 269 4 270 4 17 4 271 4 272 4 261 4 17 4 259 4 259 4 17 4 273 4 259 4 273 4 268 4 268 4 273 4 274 4 268 4 274 4 266 4 275 4 262 4 276 4 276 4 262 4 25 4 276 4 25 4 277 4 277 4 25 4 265 4 278 4 279 4 269 4 269 4 279 4 280 4 272 4 281 4 17 4 17 4 281 4 282 4 17 4 282 4 273 4 278 4 283 4 279 4 279 4 283 4 284 4 279 4 284 4 285 4 285 4 284 4 286 4 285 4 286 4 276 4 276 4 286 4 287 4 276 4 287 4 275 4 263 4 288 4 25 4 25 4 288 4 289 4 25 4 289 4 290 4 290 4 291 4 25 4 25 4 291 4 292 4 25 4 292 4 17 4 17 4 292 4 293 4 17 4 293 4 271 4 280 4 294 4 269 4 269 4 294 4 295 4 269 4 295 4 270 4 59 1 265 1 188 1 188 1 265 1 264 1 188 1 264 1 189 1 264 1 214 1 296 1 242 1 297 1 298 1 213 1 243 1 214 1 214 1 243 1 242 1 242 1 299 1 297 1 297 1 299 1 210 1 297 1 210 1 300 1 300 1 210 1 190 1 300 1 190 1 301 1 296 1 302 1 264 1 264 1 302 1 303 1 264 1 303 1 189 1 189 1 303 1 304 1 189 1 304 1 190 1 190 1 304 1 305 1 190 1 305 1 301 1 298 1 306 1 242 1 242 1 306 1 307 1 242 1 307 1 214 1 214 1 307 1 308 1 214 1 308 1 296 1 295 1 294 1 68 1 68 1 294 1 69 1 309 1 310 1 311 1 311 1 310 1 312 1 311 1 312 1 313 1 313 1 312 1 314 1 313 1 314 1 315 1 316 1 317 1 314 1 314 1 317 1 318 1 314 1 318 1 315 1 35 5 4 5 33 5 33 5 4 5 3 5 33 5 3 5 201 5 319 7 253 7 320 7 320 7 253 7 252 7 321 6 255 6 319 6 319 6 255 6 253 6 322 8 257 8 321 8 321 8 257 8 255 8 323 9 258 9 322 9 322 9 258 9 257 9 324 5 248 5 323 5 323 5 248 5 258 5 320 10 252 10 324 10 324 10 252 10 248 10 325 6 18 6 317 6 317 6 18 6 15 6 317 6 15 6 318 6 224 11 326 11 211 11 211 12 326 12 327 12 211 12 327 12 212 12 212 13 327 13 328 13 212 13 328 13 232 13 232 14 328 14 329 14 232 14 329 14 233 14 233 15 329 15 330 15 233 15 330 15 234 15 234 16 330 16 331 16 234 16 331 16 225 16 225 17 331 17 332 17 225 17 332 17 226 17 226 18 332 18 333 18 226 18 333 18 227 18 227 19 333 19 334 19 227 19 334 19 228 19 228 20 334 20 335 20 228 20 335 20 230 20 230 21 335 21 336 21 230 21 336 21 231 21 231 22 336 22 337 22 231 22 337 22 220 22 220 23 337 23 338 23 220 23 338 23 221 23 221 24 338 24 339 24 221 24 339 24 222 24 222 25 339 25 340 25 222 25 340 25 223 25 223 26 340 26 341 26 223 26 341 26 224 26 224 11 341 11 326 11 256 27 250 27 245 27 245 27 250 27 241 27 254 28 256 28 246 28 246 28 256 28 245 28 238 5 342 5 316 5 314 5 14 5 316 5 316 5 14 5 13 5 316 5 13 5 238 5 314 3 312 3 14 3 14 3 312 3 0 3 309 3 311 3 2 3 2 3 311 3 20 3 22 4 21 4 315 4 315 4 21 4 313 4 39 4 38 4 12 4 12 4 38 4 11 4 37 3 32 3 9 3 9 3 32 3 7 3 30 3 36 3 10 3 10 3 36 3 6 3 299 6 242 6 34 6 34 6 242 6 5 6 34 6 5 6 36 6 36 6 5 6 6 6 309 29 2 29 310 29 310 29 2 29 1 29 35 30 39 30 4 30 4 30 39 30 12 30 315 31 318 31 22 31 22 31 318 31 15 31 261 5 217 5 17 5 17 5 217 5 19 5 214 6 264 6 26 6 26 6 264 6 25 6 203 6 205 6 343 6 343 6 205 6 344 6 343 6 344 6 345 6 345 6 344 6 346 6 345 6 346 6 199 6 199 6 346 6 198 6 345 4 209 4 343 4 343 4 209 4 210 4 343 4 210 4 33 4 33 4 210 4 299 4 33 4 299 4 34 4 76 6 347 6 77 6 77 6 347 6 348 6 77 6 348 6 187 6 187 6 348 6 349 6 187 6 349 6 195 6 348 4 350 4 349 4 349 4 350 4 351 4 349 4 351 4 342 4 342 4 351 4 317 4 342 4 317 4 316 4 352 5 353 5 354 5 355 5 356 5 357 5 357 5 356 5 351 5 357 5 351 5 354 5 354 5 351 5 350 5 354 5 350 5 352 5 352 4 347 4 18 4 358 4 325 4 359 4 359 4 325 4 356 4 359 4 356 4 355 4 360 4 18 4 361 4 361 4 18 4 325 4 361 4 325 4 362 4 362 4 325 4 358 4 360 4 363 4 18 4 18 4 363 4 364 4 18 4 364 4 352 4 352 4 364 4 353 4 365 0 33 0 366 0 366 0 33 0 201 0 366 0 201 0 367 0 367 0 201 0 368 0 368 0 201 0 369 0 369 0 201 0 203 0 369 0 203 0 370 0 371 0 343 0 372 0 372 0 343 0 33 0 372 0 33 0 373 0 373 0 33 0 365 0 371 0 374 0 343 0 343 0 374 0 375 0 343 0 375 0 203 0 203 0 375 0 376 0 203 0 376 0 370 0 377 0 351 0 378 0 378 0 351 0 356 0 378 0 356 0 379 0 380 0 317 0 381 0 381 0 317 0 351 0 381 0 351 0 382 0 382 0 351 0 377 0 380 0 383 0 317 0 317 0 383 0 384 0 317 0 384 0 325 0 325 0 384 0 385 0 385 0 386 0 325 0 325 0 386 0 387 0 325 0 387 0 356 0 356 0 387 0 388 0 356 0 388 0 379 0 237 1 218 1 238 1 238 1 218 1 217 1 349 1 342 1 238 1 195 1 389 1 194 1 194 1 389 1 390 1 194 1 390 1 193 1 193 1 390 1 261 1 193 1 261 1 72 1 72 1 261 1 260 1 72 1 260 1 73 1 217 1 391 1 238 1 238 1 391 1 392 1 238 1 392 1 393 1 393 1 394 1 238 1 238 1 394 1 395 1 238 1 395 1 349 1 349 1 395 1 396 1 349 1 396 1 195 1 195 1 396 1 397 1 195 1 397 1 389 1 390 1 398 1 261 1 261 1 398 1 399 1 261 1 399 1 217 1 217 1 399 1 400 1 217 1 400 1 391 1 352 32 350 32 347 32 347 32 350 32 348 32 345 32 199 32 209 32 209 32 199 32 200 32 239 33 219 33 237 33 237 33 219 33 218 33 260 33 259 33 73 33 73 33 259 33 74 33 67 34 268 34 270 34 67 34 270 34 70 34 70 35 270 35 295 35 70 35 295 35 68 35 74 1 259 1 192 1 192 1 259 1 268 1 192 1 268 1 67 1 69 36 294 36 280 36 69 36 280 36 71 36 71 37 280 37 279 37 71 37 279 37 63 37 285 1 62 1 279 1 279 1 62 1 63 1 265 38 59 38 277 38 277 38 59 38 58 38 62 39 285 39 60 39 60 39 285 39 276 39 60 40 276 40 58 40 58 40 276 40 277 40 229 39 236 39 216 39 216 39 236 39 235 39 216 40 235 40 215 40 215 40 235 40 244 40 247 1 236 1 251 1 251 1 236 1 229 1 251 1 229 1 249 1 249 1 229 1 219 1 249 1 219 1 240 1 240 1 219 1 239 1 244 38 243 38 215 38 215 38 243 38 213 38 76 41 75 41 347 41 347 42 75 42 81 42 347 43 81 43 18 43 18 44 81 44 93 44 18 45 93 45 16 45 50 46 112 46 200 46 50 47 200 47 48 47 48 48 200 48 3 48 48 49 3 49 24 49 263 50 122 50 288 50 288 50 122 50 121 50 288 51 121 51 289 51 289 51 121 51 120 51 289 52 120 52 290 52 290 52 120 52 119 52 290 53 119 53 291 53 291 53 119 53 118 53 291 54 118 54 292 54 292 54 118 54 127 54 292 55 127 55 293 55 293 55 127 55 126 55 293 56 126 56 271 56 271 56 126 56 125 56 271 57 125 57 272 57 272 57 125 57 124 57 272 58 124 58 281 58 281 58 124 58 44 58 281 59 44 59 282 59 282 59 44 59 43 59 282 60 43 60 273 60 273 60 43 60 133 60 273 5 133 5 274 5 274 5 133 5 132 5 274 61 132 61 266 61 266 61 132 61 131 61 266 62 131 62 267 62 267 62 131 62 130 62 267 63 130 63 269 63 269 63 130 63 129 63 269 64 129 64 278 64 278 64 129 64 191 64 278 65 191 65 283 65 283 65 191 65 66 65 283 66 66 66 284 66 284 66 66 66 65 66 284 67 65 67 286 67 286 67 65 67 64 67 286 68 64 68 287 68 287 68 64 68 47 68 287 69 47 69 275 69 275 69 47 69 46 69 275 70 46 70 262 70 262 70 46 70 123 70 262 71 123 71 263 71 263 71 123 71 122 71 401 72 180 72 402 72 402 72 180 72 181 72 402 73 181 73 403 73 403 73 181 73 184 73 403 74 184 74 404 74 404 74 184 74 183 74 404 75 183 75 405 75 405 75 183 75 182 75 405 76 182 76 406 76 406 76 182 76 174 76 406 77 174 77 407 77 407 77 174 77 173 77 407 78 173 78 408 78 408 78 173 78 178 78 408 79 178 79 409 79 409 79 178 79 177 79 409 80 177 80 410 80 410 80 177 80 176 80 410 81 176 81 411 81 411 81 176 81 175 81 411 82 175 82 412 82 412 82 175 82 179 82 412 83 179 83 401 83 401 83 179 83 180 83 411 3 412 3 413 3 413 3 412 3 401 3 413 3 401 3 402 3 408 3 409 3 413 3 413 3 409 3 410 3 413 3 410 3 411 3 405 3 406 3 413 3 413 3 406 3 407 3 413 3 407 3 408 3 402 3 403 3 413 3 413 3 403 3 404 3 413 3 404 3 405 3 414 84 171 84 415 84 415 84 171 84 170 84 415 38 170 38 416 38 416 38 170 38 169 38 416 85 169 85 417 85 417 85 169 85 168 85 417 75 168 75 418 75 418 75 168 75 167 75 418 86 167 86 419 86 419 86 167 86 166 86 419 87 166 87 420 87 420 87 166 87 40 87 420 88 40 88 421 88 421 88 40 88 164 88 421 89 164 89 422 89 422 89 164 89 163 89 422 80 163 80 423 80 423 80 163 80 162 80 423 90 162 90 424 90 424 90 162 90 165 90 424 91 165 91 425 91 425 91 165 91 172 91 425 92 172 92 414 92 414 92 172 92 171 92 418 3 419 3 426 3 426 3 419 3 420 3 426 3 420 3 421 3 415 3 416 3 426 3 426 3 416 3 417 3 426 3 417 3 418 3 424 3 425 3 426 3 426 3 425 3 414 3 426 3 414 3 415 3 421 3 422 3 426 3 426 3 422 3 423 3 426 3 423 3 424 3 427 93 145 93 428 93 428 93 145 93 144 93 428 94 144 94 429 94 429 94 144 94 139 94 429 95 139 95 430 95 430 95 139 95 138 95 430 96 138 96 431 96 431 96 138 96 137 96 431 97 137 97 432 97 432 97 137 97 134 97 432 98 134 98 433 98 433 98 134 98 136 98 149 5 148 5 434 5 434 5 148 5 146 5 434 5 146 5 427 5 427 5 146 5 145 5 435 99 141 99 436 99 436 99 141 99 140 99 436 38 140 38 437 38 437 38 140 38 99 38 437 100 99 100 438 100 438 100 99 100 100 100 438 101 100 101 439 101 439 101 100 101 101 101 439 86 101 86 440 86 440 86 101 86 102 86 440 102 102 102 434 102 434 102 102 102 149 102 142 6 141 6 435 6 142 6 435 6 143 6 143 6 435 6 433 6 143 6 433 6 136 6 427 3 433 3 434 3 434 3 433 3 435 3 434 3 435 3 436 3 429 3 430 3 431 3 439 3 440 3 438 3 438 3 440 3 434 3 438 3 434 3 437 3 437 3 434 3 436 3 427 3 428 3 433 3 433 3 428 3 429 3 433 3 429 3 432 3 432 3 429 3 431 3 441 103 154 103 442 103 442 103 154 103 153 103 442 89 153 89 443 89 443 89 153 89 151 89 443 104 151 104 444 104 444 104 151 104 150 104 444 96 150 96 445 96 445 96 150 96 155 96 445 91 155 91 446 91 446 91 155 91 157 91 446 105 157 105 447 105 447 105 157 105 160 105 92 5 91 5 448 5 448 5 91 5 161 5 448 5 161 5 441 5 441 5 161 5 154 5 449 106 51 106 450 106 450 106 51 106 98 106 450 107 98 107 451 107 451 107 98 107 97 107 451 100 97 100 452 100 452 100 97 100 96 100 452 108 96 108 453 108 453 108 96 108 95 108 453 109 95 109 454 109 454 109 95 109 94 109 454 110 94 110 448 110 448 110 94 110 92 110 52 6 51 6 449 6 52 6 449 6 159 6 159 6 449 6 447 6 159 6 447 6 160 6 445 3 446 3 447 3 449 3 448 3 447 3 447 3 448 3 441 3 451 3 452 3 453 3 449 3 450 3 448 3 448 3 450 3 451 3 448 3 451 3 454 3 454 3 451 3 453 3 444 3 445 3 443 3 443 3 445 3 447 3 443 3 447 3 442 3 442 3 447 3 441 3 355 111 357 111 455 111 82 112 353 112 80 112 80 113 353 113 364 113 80 114 364 114 78 114 78 114 364 114 363 114 78 38 363 38 84 38 84 38 363 38 360 38 84 115 360 115 85 115 85 115 360 115 361 115 85 116 361 116 87 116 87 116 361 116 362 116 87 91 362 91 88 91 88 91 362 91 358 91 88 117 358 117 89 117 89 117 358 117 359 117 89 118 359 118 90 118 354 119 353 119 456 119 456 119 353 119 82 119 456 86 82 86 457 86 457 86 82 86 83 86 457 120 83 120 458 120 458 120 83 120 55 120 458 121 55 121 459 121 459 121 55 121 54 121 459 89 54 89 455 89 455 89 54 89 90 89 455 111 90 111 355 111 355 122 90 122 359 122 456 3 457 3 458 3 357 3 354 3 455 3 455 3 354 3 456 3 455 3 456 3 459 3 459 3 456 3 458 3 198 123 346 123 460 123 103 124 205 124 104 124 104 125 205 125 204 125 104 126 204 126 107 126 107 126 204 126 202 126 107 127 202 127 108 127 108 127 202 127 208 127 108 128 208 128 106 128 106 128 208 128 207 128 106 129 207 129 109 129 109 129 207 129 206 129 109 130 206 130 110 130 110 130 206 130 197 130 110 131 197 131 111 131 111 131 197 131 196 131 111 132 196 132 113 132 344 133 205 133 461 133 461 133 205 133 103 133 461 134 103 134 462 134 462 134 103 134 114 134 462 135 114 135 463 135 463 135 114 135 116 135 463 136 116 136 464 136 464 136 116 136 117 136 464 137 117 137 460 137 460 137 117 137 113 137 460 123 113 123 198 123 198 138 113 138 196 138 460 3 346 3 344 3 463 3 464 3 462 3 462 3 464 3 460 3 462 3 460 3 461 3 461 3 460 3 344 3 384 139 400 139 385 139 385 139 400 139 399 139 385 140 399 140 386 140 386 140 399 140 398 140 386 141 398 141 387 141 387 141 398 141 390 141 387 142 390 142 388 142 388 142 390 142 389 142 388 143 389 143 379 143 379 143 389 143 397 143 379 144 397 144 378 144 378 144 397 144 396 144 378 145 396 145 377 145 377 145 396 145 395 145 377 146 395 146 382 146 382 146 395 146 394 146 382 147 394 147 381 147 381 147 394 147 393 147 381 148 393 148 380 148 380 148 393 148 392 148 380 149 392 149 383 149 383 149 392 149 391 149 383 150 391 150 384 150 384 150 391 150 400 150 375 151 300 151 376 151 376 151 300 151 301 151 376 152 301 152 370 152 370 152 301 152 305 152 370 153 305 153 369 153 369 153 305 153 304 153 369 154 304 154 368 154 368 154 304 154 303 154 368 155 303 155 367 155 367 155 303 155 302 155 367 156 302 156 366 156 366 156 302 156 296 156 366 157 296 157 365 157 365 157 296 157 308 157 365 158 308 158 373 158 373 158 308 158 307 158 373 159 307 159 372 159 372 159 307 159 306 159 372 160 306 160 371 160 371 160 306 160 298 160 371 161 298 161 374 161 374 161 298 161 297 161 374 162 297 162 375 162 375 162 297 162 300 162 340 3 324 3 341 3 341 3 324 3 323 3 319 3 334 3 333 3 340 3 339 3 324 3 324 3 339 3 338 3 324 3 338 3 320 3 329 3 328 3 322 3 322 3 328 3 327 3 322 3 327 3 323 3 323 3 327 3 326 3 323 3 326 3 341 3 319 3 333 3 321 3 333 3 332 3 321 3 321 3 332 3 331 3 321 3 331 3 322 3 322 3 331 3 330 3 322 3 330 3 329 3 338 3 337 3 320 3 320 3 337 3 336 3 320 3 336 3 319 3 319 3 336 3 335 3 319 3 335 3 334 3 30 5 10 5 31 5 31 5 10 5 8 5 312 6 310 6 0 6 0 6 310 6 1 6 20 5 311 5 21 5 21 5 311 5 313 5 38 6 37 6 11 6 11 6 37 6 9 6 465 5 466 5 467 5 467 5 466 5 468 5 468 1 469 1 467 1 467 1 469 1 470 1 471 0 472 0 473 0 474 0 475 0 476 0 476 0 475 0 471 0 476 0 471 0 477 0 477 0 471 0 473 0 474 0 478 0 475 0 475 0 478 0 479 0 475 0 479 0 480 0 481 6 474 6 482 6 482 6 483 6 481 6 481 6 483 6 484 6 481 6 484 6 485 6 486 5 487 5 488 5 489 5 486 5 490 5 490 5 486 5 488 5 490 5 488 5 478 5 491 6 477 6 492 6 492 6 493 6 491 6 491 6 493 6 494 6 491 6 494 6 495 6 496 5 497 5 498 5 499 5 496 5 500 5 500 5 496 5 498 5 500 5 498 5 476 5 501 4 494 4 502 4 502 4 494 4 493 4 496 4 484 4 497 4 497 4 484 4 483 4 486 4 503 4 487 4 487 4 503 4 504 4 487 4 504 4 483 4 483 4 504 4 502 4 483 4 502 4 497 4 497 4 502 4 493 4 505 163 506 163 507 163 466 46 465 46 507 46 507 164 465 164 508 164 507 163 508 163 505 163 508 5 475 5 505 5 505 5 475 5 480 5 509 165 507 165 510 165 510 165 507 165 506 165 479 6 511 6 512 6 513 3 466 3 509 3 509 3 466 3 507 3 514 3 515 3 516 3 516 3 515 3 517 3 518 3 519 3 520 3 520 3 519 3 521 3 522 3 523 3 524 3 524 3 523 3 525 3 526 3 527 3 469 3 469 3 527 3 528 3 469 3 468 3 529 3 529 3 468 3 521 3 530 3 531 3 521 3 521 3 531 3 532 3 521 3 532 3 520 3 528 3 533 3 469 3 469 3 533 3 534 3 469 3 534 3 523 3 535 3 536 3 529 3 534 3 537 3 523 3 523 3 537 3 538 3 523 3 538 3 525 3 525 3 538 3 539 3 525 3 539 3 516 3 539 3 540 3 516 3 516 3 540 3 541 3 516 3 541 3 514 3 514 3 541 3 542 3 514 3 542 3 543 3 530 3 521 3 544 3 544 3 521 3 468 3 544 3 468 3 545 3 546 3 547 3 548 3 548 3 547 3 549 3 548 3 549 3 550 3 551 3 552 3 553 3 554 3 555 3 546 3 546 3 555 3 556 3 550 3 557 3 548 3 548 3 557 3 558 3 548 3 558 3 551 3 551 3 558 3 559 3 551 3 559 3 552 3 553 3 560 3 551 3 551 3 560 3 561 3 551 3 561 3 529 3 529 3 561 3 562 3 529 3 562 3 535 3 536 3 554 3 529 3 529 3 554 3 546 3 529 3 546 3 469 3 469 3 546 3 514 3 469 3 514 3 526 3 526 3 514 3 543 3 556 3 563 3 546 3 546 3 563 3 564 3 546 3 564 3 547 3 565 3 466 3 566 3 566 3 466 3 513 3 566 3 513 3 567 3 567 3 513 3 520 3 567 3 520 3 568 3 568 3 520 3 532 3 565 3 569 3 466 3 466 3 569 3 570 3 466 3 570 3 468 3 468 3 570 3 571 3 468 3 571 3 545 3 492 3 477 3 473 3 474 3 476 3 482 3 482 3 476 3 498 3 572 3 573 3 574 3 479 3 478 3 511 3 511 3 478 3 488 3 473 3 572 3 492 3 492 3 572 3 574 3 492 3 574 3 498 3 498 3 574 3 482 3 482 3 574 3 575 3 482 3 575 3 488 3 488 3 575 3 576 3 488 3 576 3 511 3 577 4 471 4 475 4 578 4 579 4 580 4 581 4 582 4 467 4 467 4 582 4 583 4 467 4 583 4 465 4 465 4 583 4 584 4 465 4 584 4 585 4 475 4 508 4 586 4 579 4 587 4 580 4 580 4 587 4 588 4 580 4 588 4 470 4 470 4 588 4 589 4 470 4 589 4 590 4 591 4 592 4 593 4 580 4 577 4 578 4 578 4 577 4 475 4 578 4 475 4 594 4 594 4 475 4 586 4 594 4 586 4 595 4 596 4 597 4 598 4 599 4 600 4 508 4 508 4 600 4 601 4 508 4 601 4 586 4 602 4 603 4 122 4 122 4 603 4 604 4 122 4 604 4 605 4 605 4 604 4 591 4 605 4 591 4 606 4 606 4 591 4 593 4 598 4 597 4 607 4 607 4 597 4 608 4 607 4 608 4 609 4 585 4 603 4 465 4 465 4 603 4 602 4 465 4 602 4 508 4 508 4 602 4 610 4 508 4 610 4 599 4 611 4 592 4 470 4 595 4 586 4 598 4 598 4 586 4 612 4 598 4 612 4 596 4 591 4 613 4 592 4 592 4 613 4 614 4 592 4 614 4 470 4 470 4 614 4 615 4 470 4 615 4 467 4 467 4 615 4 616 4 467 4 616 4 581 4 609 4 617 4 607 4 607 4 617 4 611 4 607 4 611 4 618 4 618 4 611 4 470 4 618 4 470 4 619 4 619 4 470 4 590 4 469 6 523 6 470 6 470 6 523 6 580 6 620 166 621 166 522 166 522 166 621 166 577 166 522 167 577 167 523 167 523 168 577 168 580 168 547 169 597 169 549 169 549 169 597 169 596 169 549 170 596 170 550 170 550 170 596 170 612 170 550 171 612 171 557 171 557 171 612 171 586 171 557 172 586 172 558 172 558 172 586 172 601 172 558 1 601 1 559 1 559 1 601 1 600 1 559 173 600 173 552 173 552 173 600 173 599 173 552 174 599 174 553 174 553 174 599 174 610 174 553 175 610 175 560 175 560 175 610 175 602 175 560 176 602 176 561 176 561 176 602 176 122 176 561 177 122 177 562 177 562 177 122 177 605 177 562 178 605 178 535 178 535 178 605 178 606 178 535 179 606 179 536 179 536 179 606 179 593 179 536 180 593 180 554 180 554 180 593 180 592 180 554 0 592 0 555 0 555 0 592 0 611 0 555 181 611 181 556 181 556 181 611 181 617 181 556 182 617 182 563 182 563 182 617 182 609 182 563 183 609 183 564 183 564 183 609 183 608 183 564 184 608 184 547 184 547 184 608 184 597 184 534 120 588 120 537 120 537 120 588 120 587 120 537 86 587 86 538 86 538 86 587 86 579 86 538 185 579 185 539 185 539 185 579 185 578 185 539 114 578 114 540 114 540 114 578 114 594 114 540 186 594 186 541 186 541 186 594 186 595 186 541 187 595 187 542 187 542 187 595 187 598 187 542 188 598 188 543 188 543 188 598 188 607 188 543 189 607 189 526 189 526 189 607 189 618 189 526 117 618 117 527 117 527 117 618 117 619 117 527 118 619 118 528 118 528 118 619 118 590 118 528 190 590 190 533 190 533 190 590 190 589 190 533 191 589 191 534 191 534 191 589 191 588 191 532 129 613 129 568 129 568 129 613 129 591 129 568 130 591 130 567 130 567 130 591 130 604 130 567 131 604 131 566 131 566 131 604 131 603 131 566 192 603 192 565 192 565 192 603 192 585 192 565 193 585 193 569 193 569 193 585 193 584 193 569 194 584 194 570 194 570 194 584 194 583 194 570 195 583 195 571 195 571 195 583 195 582 195 571 196 582 196 545 196 545 196 582 196 581 196 545 197 581 197 544 197 544 197 581 197 616 197 544 126 616 126 530 126 530 126 616 126 615 126 530 198 615 198 531 198 531 198 615 198 614 198 531 199 614 199 532 199 532 199 614 199 613 199 502 0 504 0 574 0 574 0 504 0 575 0 501 5 502 5 622 5 622 5 502 5 574 5 622 5 574 5 573 5 623 0 624 0 625 0 625 0 624 0 501 0 625 0 501 0 626 0 626 0 501 0 622 0 627 6 625 6 525 6 525 6 625 6 626 6 525 6 626 6 524 6 628 1 517 1 515 1 515 1 629 1 628 1 628 1 629 1 630 1 628 1 630 1 631 1 519 1 518 1 632 1 632 1 518 1 631 1 632 1 631 1 633 1 633 1 631 1 630 1 633 1 630 1 551 1 551 1 630 1 548 1 629 6 515 6 514 6 630 5 546 5 548 5 633 6 551 6 529 6 632 5 521 5 519 5 634 5 635 5 510 5 510 5 635 5 513 5 510 5 513 5 509 5 510 0 636 0 634 0 634 0 636 0 503 0 634 0 503 0 637 0 637 0 503 0 638 0 576 6 575 6 636 6 636 6 575 6 504 6 636 6 504 6 503 6 472 6 471 6 621 6 621 6 471 6 577 6 514 200 546 200 629 200 629 200 546 200 630 200 521 200 632 200 529 200 529 200 632 200 633 200 525 1 516 1 627 1 627 1 516 1 639 1 627 1 639 1 640 1 640 1 639 1 641 1 628 5 639 5 517 5 517 5 639 5 516 5 642 1 643 1 635 1 635 1 643 1 644 1 635 1 644 1 513 1 513 1 644 1 520 1 644 6 631 6 520 6 520 6 631 6 518 6 644 4 639 4 631 4 631 4 639 4 628 4 645 1 641 1 646 1 646 1 641 1 639 1 646 1 639 1 647 1 647 1 639 1 644 1 647 1 644 1 648 1 648 1 644 1 643 1 646 3 647 3 649 3 649 3 647 3 650 3 651 0 638 0 503 0 651 0 503 0 650 0 503 0 486 0 650 0 650 0 486 0 484 0 650 0 484 0 649 0 484 0 496 0 649 0 649 0 496 0 494 0 649 0 494 0 652 0 652 0 494 0 501 0 652 0 501 0 624 0 646 201 649 201 652 201 646 201 652 201 645 201 645 202 652 202 624 202 645 202 624 202 641 202 641 203 624 203 623 203 641 203 623 203 640 203 640 204 623 204 625 204 640 204 625 204 627 204 650 205 647 205 648 205 650 205 648 205 651 205 651 206 648 206 643 206 651 206 643 206 638 206 638 207 643 207 642 207 638 207 642 207 637 207 637 208 642 208 635 208 637 208 635 208 634 208 572 1 653 1 573 1 573 1 653 1 622 1 653 5 572 5 473 5 522 209 524 209 620 209 620 209 524 209 626 209 497 1 493 1 498 1 498 1 493 1 492 1 487 1 483 1 488 1 488 1 483 1 482 1 512 1 511 1 636 1 636 1 511 1 576 1 480 210 479 210 505 210 505 211 479 211 512 211 505 212 512 212 506 212 506 213 512 213 636 213 506 213 636 213 510 213 473 214 472 214 653 214 653 215 472 215 621 215 653 216 621 216 622 216 622 217 621 217 620 217 622 213 620 213 626 213 499 0 500 0 495 0 495 0 500 0 491 0 499 3 495 3 496 3 496 3 495 3 494 3 489 0 490 0 485 0 485 0 490 0 481 0 489 3 485 3 486 3 486 3 485 3 484 3 491 218 500 218 477 218 477 218 500 218 476 218 481 218 490 218 474 218 474 218 490 218 478 218 654 3 655 3 467 3 467 3 655 3 656 3 657 5 654 5 658 5 658 5 654 5 467 5 659 4 657 4 660 4 660 4 657 4 658 4 661 219 662 219 663 219 663 219 662 219 664 219 663 220 664 220 665 220 665 220 664 220 666 220 665 221 666 221 667 221 667 221 666 221 668 221 667 222 668 222 669 222 669 222 668 222 670 222 669 223 670 223 671 223 671 223 670 223 672 223 671 224 672 224 673 224 673 224 672 224 674 224 673 225 674 225 675 225 675 225 674 225 676 225 675 226 676 226 677 226 677 226 676 226 678 226 677 227 678 227 679 227 679 227 678 227 680 227 679 228 680 228 681 228 681 228 680 228 682 228 681 229 682 229 683 229 683 229 682 229 684 229 683 230 684 230 685 230 685 230 684 230 686 230 685 140 686 140 687 140 687 140 686 140 688 140 687 231 688 231 689 231 689 231 688 231 690 231 689 232 690 232 691 232 691 232 690 232 692 232 691 233 692 233 693 233 693 233 692 233 694 233 693 234 694 234 695 234 695 234 694 234 696 234 695 143 696 143 697 143 697 143 696 143 698 143 697 235 698 235 699 235 699 235 698 235 700 235 699 236 700 236 661 236 661 236 700 236 662 236 655 6 659 6 656 6 656 6 659 6 660 6 675 0 677 0 657 0 655 0 693 0 695 0 661 0 659 0 699 0 699 0 659 0 655 0 699 0 655 0 697 0 697 0 655 0 695 0 661 0 663 0 659 0 659 0 663 0 665 0 659 0 665 0 667 0 667 0 669 0 659 0 659 0 669 0 671 0 659 0 671 0 657 0 657 0 671 0 673 0 657 0 673 0 675 0 677 0 679 0 657 0 657 0 679 0 681 0 657 0 681 0 654 0 654 0 681 0 683 0 654 0 683 0 685 0 685 0 687 0 654 0 654 0 687 0 689 0 654 0 689 0 655 0 655 0 689 0 691 0 655 0 691 0 693 0 668 1 666 1 660 1 682 1 658 1 684 1 684 1 658 1 467 1 684 1 467 1 686 1 686 1 467 1 688 1 682 1 680 1 658 1 658 1 680 1 678 1 658 1 678 1 676 1 656 1 698 1 696 1 696 1 694 1 656 1 656 1 694 1 692 1 656 1 692 1 467 1 467 1 692 1 690 1 467 1 690 1 688 1 676 1 674 1 658 1 658 1 674 1 672 1 658 1 672 1 660 1 660 1 672 1 670 1 660 1 670 1 668 1 666 1 664 1 660 1 660 1 664 1 662 1 660 1 662 1 656 1 656 1 662 1 700 1 656 1 700 1 698 1 701 4 702 4 703 4 703 4 702 4 704 4 705 6 701 6 470 6 470 6 701 6 703 6 706 3 705 3 707 3 707 3 705 3 470 3 702 5 706 5 704 5 704 5 706 5 707 5 708 237 709 237 710 237 710 237 709 237 711 237 710 238 711 238 712 238 712 238 711 238 713 238 712 239 713 239 714 239 714 239 713 239 715 239 714 240 715 240 716 240 716 240 715 240 717 240 716 241 717 241 718 241 718 241 717 241 719 241 718 242 719 242 720 242 720 242 719 242 721 242 720 243 721 243 722 243 722 243 721 243 723 243 722 244 723 244 724 244 724 244 723 244 725 244 724 245 725 245 726 245 726 245 725 245 727 245 726 246 727 246 728 246 728 246 727 246 729 246 728 247 729 247 730 247 730 247 729 247 731 247 730 248 731 248 732 248 732 248 731 248 733 248 732 249 733 249 734 249 734 249 733 249 735 249 734 250 735 250 736 250 736 250 735 250 737 250 736 251 737 251 738 251 738 251 737 251 739 251 738 252 739 252 740 252 740 252 739 252 741 252 740 253 741 253 742 253 742 253 741 253 743 253 742 254 743 254 744 254 744 254 743 254 745 254 744 255 745 255 746 255 746 255 745 255 747 255 746 256 747 256 708 256 708 256 747 256 709 256 702 0 722 0 724 0 708 0 701 0 746 0 746 0 701 0 705 0 746 0 705 0 744 0 744 0 705 0 742 0 724 0 726 0 702 0 702 0 726 0 728 0 702 0 728 0 706 0 728 0 730 0 706 0 706 0 730 0 732 0 706 0 732 0 734 0 734 0 736 0 706 0 706 0 736 0 738 0 706 0 738 0 705 0 705 0 738 0 740 0 705 0 740 0 742 0 708 0 710 0 701 0 701 0 710 0 712 0 701 0 712 0 714 0 714 0 716 0 701 0 701 0 716 0 718 0 701 0 718 0 702 0 702 0 718 0 720 0 702 0 720 0 722 0 725 1 723 1 704 1 725 1 704 1 727 1 703 1 709 1 470 1 470 1 709 1 747 1 470 1 747 1 745 1 707 1 737 1 735 1 735 1 733 1 707 1 707 1 733 1 731 1 707 1 731 1 704 1 704 1 731 1 729 1 704 1 729 1 727 1 745 1 743 1 470 1 470 1 743 1 741 1 470 1 741 1 707 1 707 1 741 1 739 1 707 1 739 1 737 1 715 1 713 1 703 1 703 1 713 1 711 1 703 1 711 1 709 1 723 1 721 1 704 1 704 1 721 1 719 1 704 1 719 1 703 1 703 1 719 1 717 1 703 1 717 1 715 1</p>
        </triangles>
      </mesh>
    </geometry>
  </library_geometries>
  <library_visual_scenes>
    <visual_scene id="DefaultScene">
      <node id="node_23428d5c_3928_4aac_b23e_1e11bbeb6bff" type="NODE">
        <matrix>1 0 0 0 0 1 0 0 0 0 1 0 0 0 0 1</matrix>
        <node id="node_356cffda_c7aa_494f_b920_48cc95449f07" type="NODE">
          <matrix>1 0 0 0 0 1 0 0 0 0 1 0 0 0 0 1</matrix>
          <node id="node_356cffda_c7aa_494f_b920_48cc95449f07_mesh0" type="NODE">
            <matrix>1 0 0 0 0 1 0 0 0 0 1 0 0 0 0 1</matrix>
            <instance_geometry url="#geometry_31fa01ce_a168_4126_8e95_db57ea90f382">
              <bind_material>
                <technique_common>
                  <instance_material symbol="mat_0" target="#mat_0"/>
                </technique_common>
              </bind_material>
            </instance_geometry>
          </node>
        </node>
      </node>
    </visual_scene>
  </library_visual_scenes>
  <scene>
    <instance_visual_scene url="#DefaultScene"/>
  </scene>
</COLLADA>
