<?xml version="1.0" encoding="UTF-8"?>
<COLLADA xmlns="http://www.collada.org/2005/11/COLLADASchema" version="1.4.1">
<!--
# File generated by ImageToStl.com - Free Image and 3D model conversion tools
-->
  <asset>
    <contributor>
      <author>ImageToStl.com</author>
      <authoring_tool>ImageToStl.com</authoring_tool>
    </contributor>
    <created>2025-11-25T11:11:31</created>
    <modified>2025-11-25T11:11:31</modified>
    <up_axis>Z_UP</up_axis>
  </asset>
  <library_effects>
    <effect id="effect_0">
        <profile_COMMON>
          <technique sid="common">
            <phong>
              <diffuse>
                <color>0.85 0.85 0.85 1</color>
              </diffuse>
              <specular>
                <color>0.05 0.05 0.05 1</color>
              </specular>
              <shininess>
                <float>64</float>
              </shininess>
            </phong>
          </technique>
        </profile_COMMON>
    </effect>
  </library_effects>
  <library_materials>
    <material id="mat_0">
      <instance_effect url="#effect_0"/>
    </material>
  </library_materials>
  <library_geometries>
    <geometry id="geometry_1249f932_46e4_42a7_a041_f2d5dd24747b">
      <mesh>
        <source id="pos_0">
          <float_array id="pos_0-array" count="759">0.0033 -0 0.0062 -0.0134 -0 0.0062 -0.01354194 -0 0.00530385 -0.0134 -0 -0.0062 0.0033 -0 -0.0062 -0.01354194 -0 -0.00530385 -0.01395385 -0 -0.00449542 -0.0163 -0 0.0033 -0.0163 -0 -0.0033 -0.01540385 -0 0.00344194 -0.01540385 -0 -0.00344194 -0.01459542 -0 0.00385385 -0.01459542 -0 -0.00385385 -0.01395385 -0 0.00449542 0.0062 0.002 -0.0033 0.0062 0.002 -0.0062 0.0062 0.0171 -0.0062 0.0062 0.002 0.0062 0.0062 0.002 0.0033 0.0062 0.0171 0.0062 0.0062 0.002 0.001875 0.0062 0.002 -0.001875 0.0033 0.002 -0.0062 -0 0.0238 -0.0062 0.0062 0.0195 -0.0062 0.0062 0.0238 -0.0062 0.011 0.0171 -0.0062 0.011 0.0195 -0.0062 -0.0211 0.0171 -0.0062 -0.0211 0.0195 -0.0062 -0.0163 0.0171 -0.0062 -0.0163 0.0195 -0.0062 -0.0163 0.0238 -0.0062 -0.0163 0.0008 -0.0062 -0.0134 0.0008 -0.0062 -0.0163 0.0008 0.0033 -0.0163 0.0008 0.0062 -0.0163 0.0171 0.0062 -0.0163 0.0008 -0.0033 -0.0134 0.0008 0.0062 0.0062 0.0195 0.0062 0.0062 0.0238 0.0062 -0 0.0238 0.0062 -0.0211 0.0195 0.0062 -0.0211 0.0171 0.0062 -0.0163 0.0195 0.0062 0.0033 0.002 0.0062 0.011 0.0171 0.0062 0.011 0.0195 0.0062 -0.0163 0.0238 0.0062 -0.0211 0.0171 0.000575 -0.0211 0.0195 0.000575 0.011 0.0195 0.000575 0.011 0.0171 0.000575 -0.00052315 0.0238 -0.00617789 -0.00653544 0.0238 0.00267246 -0.00742825 0.0238 0.00220299 -0.00809675 0.0238 -0.00144761 -0.00742825 0.0238 -0.00220299 -0.00206258 0.0238 0.00584686 -0.00052315 0.0238 0.00617789 -0.00553421 0.0238 0.00279509 -0.00465161 0.0238 0.00409909 -0.00346897 0.0238 0.0051387 -0.00809675 0.0238 0.00144761 -0.0084542 0.0238 0.00050436 -0.0084542 0.0238 -0.00050436 -0.00653544 0.0238 -0.00267246 -0.00553421 0.0238 -0.00279509 -0.00465161 0.0238 -0.00409909 -0.00346897 0.0238 -0.0051387 -0.00206258 0.0238 -0.00584686 0.0062 0.0238 -0 0.00614981 0.0238 0.00078731 0.00575314 0.0238 0.00231114 0.00498539 0.0238 0.00368591 0.00389608 0.0238 0.00482292 0.00255546 0.0238 0.00564886 0.00105002 0.0238 0.00611044 -0.0211 0.0195 -0.000575 -0.01986592 0.0195 -0.000575 -0.01743849 0.0195 0.000314 -0.01743849 0.0195 -0.000314 -0.01773287 0.0195 -0.00086871 -0.01946034 0.0195 -0.00105446 -0.01887733 0.0195 -0.00128785 -0.01825294 0.0195 -0.00122071 -0.01773287 0.0195 0.00086871 -0.01825294 0.0195 0.00122071 -0.01986592 0.0195 0.000575 -0.01946034 0.0195 0.00105446 -0.01887733 0.0195 0.00128785 -0.0211 0.0171 -0.000575 -0.01986592 0.0171 0.000575 -0.01773287 0.0171 0.00086871 -0.01743849 0.0171 0.000314 -0.01743849 0.0171 -0.000314 -0.01773287 0.0171 -0.00086871 -0.01825294 0.0171 -0.00122071 -0.01986592 0.0171 -0.000575 -0.01946034 0.0171 -0.00105446 -0.01887733 0.0171 -0.00128785 -0.01946034 0.0171 0.00105446 -0.01887733 0.0171 0.00128785 -0.01825294 0.0171 0.00122071 0.00976592 0.0171 0.000575 0.00936034 0.0171 0.00105446 0.011 0.0171 -0.000575 0.00976592 0.0171 -0.000575 0.00936034 0.0171 -0.00105446 0.00877733 0.0171 -0.00128785 0.00815294 0.0171 -0.00122071 0.00763287 0.0171 -0.00086871 0.00733849 0.0171 -0.000314 0.00733849 0.0171 0.000314 0.00763287 0.0171 0.00086871 0.00815294 0.0171 0.00122071 0.00877733 0.0171 0.00128785 0.011 0.0195 -0.000575 0.00976592 0.0195 0.000575 0.00763287 0.0195 -0.00086871 0.00815294 0.0195 -0.00122071 0.00936034 0.0195 0.00105446 0.00877733 0.0195 0.00128785 0.00815294 0.0195 0.00122071 0.00763287 0.0195 0.00086871 0.00733849 0.0195 0.000314 0.00733849 0.0195 -0.000314 0.00976592 0.0195 -0.000575 0.00936034 0.0195 -0.00105446 0.00877733 0.0195 -0.00128785 0.0062 0.0238 -0 0.00389608 0.0238 -0.00482292 0.00498539 0.0238 -0.00368591 0.00575314 0.0238 -0.00231114 0.00614981 0.0238 -0.00078731 0.00105002 0.0238 -0.00611044 0.00255546 0.0238 -0.00564886 -0.00553421 0.028 -0.00279509 -0.00653544 0.028 -0.00267246 -0.00742825 0.028 -0.00220299 -0.00809675 0.028 -0.00144761 -0.0084542 0.028 -0.00050436 -0.0084542 0.028 0.00050436 -0.00809675 0.028 0.00144761 -0.00742825 0.028 0.00220299 -0.00653544 0.028 0.00267246 -0.00553421 0.028 0.00279509 -0.00465161 0.028 0.00409909 -0.00346897 0.028 0.0051387 -0.00206258 0.028 0.00584686 -0.00052315 0.028 0.00617789 0.00105002 0.028 0.00611044 0.00255546 0.028 0.00564886 0.00389608 0.028 0.00482292 0.00498539 0.028 0.00368591 0.00575314 0.028 0.00231114 0.00614981 0.028 0.00078731 0.00614981 0.028 -0.00078731 0.00575314 0.028 -0.00231114 0.00498539 0.028 -0.00368591 0.00389608 0.028 -0.00482292 0.00255546 0.028 -0.00564886 0.00105002 0.028 -0.00611044 -0.00052315 0.028 -0.00617789 -0.00206258 0.028 -0.00584686 -0.00346897 0.028 -0.0051387 -0.00465161 0.028 -0.00409909 0.00050419 0.028 0.00237201 -0 0.028 0.002425 -0.00050419 0.028 0.00237201 -0.00142538 0.028 0.00196187 -0.00210011 0.028 0.0012125 0.00142538 0.028 0.00196187 0.00210011 0.028 0.0012125 0.00098634 0.028 -0.00221535 -0 0.028 -0.002425 -0.00098634 0.028 -0.00221535 -0.00241172 0.028 0.00025348 -0.00230631 0.028 -0.00074937 -0.00180213 0.028 -0.00162264 0.00241172 0.028 0.00025348 0.00230631 0.028 -0.00074937 0.00180213 0.028 -0.00162264 -0.01354194 0.0008 -0.00530385 -0.01395385 0.0008 -0.00449542 -0.01459542 0.0008 -0.00385385 -0.01540385 0.0008 -0.00344194 -0.01540385 0.0008 0.00344194 -0.01459542 0.0008 0.00385385 -0.01395385 0.0008 0.00449542 -0.01354194 0.0008 0.00530385 0.00532467 0.00139633 -0.00343526 0.00532467 0.002 -0.00343526 0.00450872 0.0008336 -0.00384425 0.00450872 0.002 -0.00384425 0.00386029 0.00038641 -0.00448659 0.00386029 0.002 -0.00448659 0.00344363 9.906E-05 -0.00529865 0.00344363 0.002 -0.00529865 0.0047 0.00096552 0.001875 0.0047 0.002 0.001875 0.0047 0.00096552 -0.001875 0.0047 0.002 -0.001875 0.00532467 0.002 0.00343526 0.00532467 0.00139633 0.00343526 0.00450872 0.002 0.00384425 0.00450872 0.0008336 0.00384425 0.00386029 0.002 0.00448659 0.00386029 0.00038641 0.00448659 0.00344363 0.002 0.00529865 0.00344363 9.906E-05 0.00529865 -0.00050419 0.03085 0.00237201 -0 0.03085 0.000875 -0.0004375 0.03085 0.00075777 -0 0.03085 0.002425 0.00050419 0.03085 0.00237201 0.0004375 0.03085 0.00075777 0.00142538 0.03085 0.00196187 0.00075777 0.03085 0.0004375 0.00210011 0.03085 0.0012125 0.000875 0.03085 -0 -0.00075777 0.03085 -0.0004375 -0.00230631 0.03085 -0.00074937 -0.000875 0.03085 -0 -0.00241172 0.03085 0.00025348 -0.00075777 0.03085 0.0004375 -0.00210011 0.03085 0.0012125 -0.00142538 0.03085 0.00196187 0.00241172 0.03085 0.00025348 0.00230631 0.03085 -0.00074937 0.00075777 0.03085 -0.0004375 0.00180213 0.03085 -0.00162264 0.0004375 0.03085 -0.00075777 0.00098634 0.03085 -0.00221535 -0 0.03085 -0.000875 -0 0.03085 -0.002425 -0.0004375 0.03085 -0.00075777 -0.00098634 0.03085 -0.00221535 -0.00180213 0.03085 -0.00162264 -0 0.028 -0.000875 0.0004375 0.028 -0.00075777 0.00075777 0.028 -0.0004375 0.000875 0.028 -0 0.00075777 0.028 0.0004375 0.0004375 0.028 0.00075777 -0 0.028 0.000875 -0.0004375 0.028 0.00075777 -0.00075777 0.028 0.0004375 -0.000875 0.028 -0 -0.00075777 0.028 -0.0004375 -0.0004375 0.028 -0.00075777 -0 0.028 -0</float_array>
          <technique_common>
            <accessor source="#pos_0-array" count="759" stride="3">
              <param name="X" type="float"/>
              <param name="Y" type="float"/>
              <param name="Z" type="float"/>
            </accessor>
          </technique_common>
        </source>
        <source id="norm_0">
          <float_array id="norm_0-array" count="363">0 -1 0 1 0 -0 -0 0 -1 -1 0 0 0 0 1 0 1 0 -0.12157 0 -0.99258 -0.46541 0 -0.88509 -0.74886 0 -0.66273 -0.93511 0 -0.35436 -0.93511 0 0.35436 -0.74886 0 0.66273 -0.46541 0 0.88509 -0.12157 0 0.99258 -0.82814 0 0.56052 -0.66023 0 0.75106 -0.44973 0 0.89316 -0.21023 0 0.97765 -0.04223 0 0.99911 0.04283 0.01059 0.99903 0.08499 0 0.99638 0.29314 0 0.95607 0.52453 0 0.85139 0.72209 0 0.6918 0.87308 0 0.48758 0.96775 0 0.25191 0.99797 0 0.06362 0.99993 0.01195 -0 0.99797 0 -0.06362 0.96775 0 -0.25191 0.87308 0 -0.48758 0.72209 0 -0.6918 0.52453 0 -0.85139 0.29314 0 -0.95607 0.08499 0 -0.99638 0.04283 0.01059 -0.99903 -0.04223 0 -0.99911 -0.21023 0 -0.97765 -0.44973 0 -0.89316 -0.66023 0 -0.75106 -0.82814 0 -0.56052 -0.76348 0 0.64584 -0.37165 0 0.92837 0.10691 0 0.99427 0.56051 0 0.82815 0.88332 0 0.46877 0.88332 0 -0.46877 0.56051 0 -0.82815 0.10691 0 -0.99427 -0.37165 0 -0.92837 -0.76348 0 -0.64584 0.76348 0 -0.64584 0.37165 0 -0.92837 -0.10691 0 -0.99427 -0.56051 0 -0.82815 -0.88332 0 -0.46877 -0.88332 0 0.46877 -0.56051 0 0.82815 -0.10691 0 0.99427 0.37165 0 0.92837 0.76348 0 0.64584 -0.98769 0 -0.15643 -0.89101 0 -0.45399 -0.70711 0 -0.70711 -0.45399 0 -0.89101 -0.15643 0 -0.98769 -0.15643 0 0.98769 -0.45399 0 0.89101 -0.70711 0 0.70711 -0.89101 0 0.45399 -0.98769 0 0.15643 0.15271 0 -0.98827 0.4481 0 -0.89398 0.70377 0 -0.71043 0.88972 0 -0.45651 0.98754 0 -0.15737 0.15271 0 0.98827 0.4481 0 0.89398 0.70377 0 0.71043 0.88972 0 0.45651 0.98754 0 0.15737 0.56773 -0.82321 -0 0.56773 -0.82321 -0 0.56773 -0.82321 -0 0.56773 -0.82321 -0 0.56773 -0.82321 0 0.56773 -0.82321 -0 0.56773 -0.82321 -0 0.56773 -0.82321 0 0.56773 -0.82321 0 0.56773 -0.82321 -0 0.56773 -0.82321 0 0.56773 -0.82321 -0 0.10453 0 0.99452 -0.10453 0 0.99452 -0.40674 0 0.91355 -0.74314 0 0.66913 -0.95106 0 0.30902 -0.99452 0 -0.10453 -0.86603 0 -0.5 -0.58779 0 -0.80902 -0.20791 0 -0.97815 0.20791 0 -0.97815 0.58779 0 -0.80902 0.86603 0 -0.5 0.99452 0 -0.10453 0.95106 0 0.30902 0.74314 0 0.66913 0.40674 0 0.91355 -0.25882 0 0.96593 -0.70711 0 0.70711 -0.96593 0 0.25882 -0.96593 0 -0.25882 -0.70711 0 -0.70711 -0.25882 0 -0.96593 0.25882 0 -0.96593 0.70711 0 -0.70711 0.96593 0 -0.25882 0.96593 0 0.25882 0.70711 0 0.70711 0.25882 0 0.96593</float_array>
          <technique_common>
            <accessor source="#norm_0-array" count="363" stride="3">
              <param name="X" type="float"/>
              <param name="Y" type="float"/>
              <param name="Z" type="float"/>
            </accessor>
          </technique_common>
        </source>
        <vertices id="vert_0">
          <input semantic="POSITION" source="#pos_0"/>
        </vertices>
        <triangles count="500" material="mat_0">
          <input semantic="VERTEX" source="#vert_0" offset="0"/>
          <input semantic="NORMAL" source="#norm_0" offset="1"/>
          <p>0 0 1 0 2 0 3 0 4 0 5 0 5 0 4 0 0 0 5 0 0 0 6 0 7 0 8 0 9 0 9 0 8 0 10 0 9 0 10 0 11 0 6 0 0 0 12 0 12 0 0 0 2 0 12 0 2 0 10 0 10 0 2 0 13 0 10 0 13 0 11 0 14 1 15 1 16 1 17 1 18 1 19 1 19 1 18 1 20 1 19 1 20 1 16 1 16 1 20 1 21 1 16 1 21 1 14 1 22 2 23 2 24 2 24 2 23 2 25 2 15 2 22 2 16 2 16 2 22 2 24 2 16 2 24 2 26 2 26 2 24 2 27 2 28 2 29 2 30 2 30 2 29 2 31 2 30 2 31 2 22 2 22 2 31 2 32 2 22 2 32 2 23 2 33 2 30 2 34 2 34 2 30 2 22 2 34 2 22 2 3 2 3 2 22 2 4 2 35 3 36 3 37 3 30 3 33 3 38 3 8 3 7 3 38 3 38 3 7 3 35 3 38 3 35 3 30 3 30 3 35 3 37 3 39 4 1 4 0 4 40 4 41 4 42 4 43 4 44 4 45 4 45 4 44 4 37 4 46 4 17 4 19 4 47 4 48 4 19 4 19 4 48 4 40 4 19 4 40 4 46 4 40 4 42 4 46 4 46 4 42 4 49 4 46 4 49 4 0 4 0 4 49 4 45 4 0 4 45 4 39 4 39 4 45 4 37 4 39 4 37 4 36 4 44 3 43 3 50 3 50 3 43 3 51 3 52 1 48 1 53 1 53 1 48 1 47 1 54 5 23 5 32 5 55 5 56 5 49 5 32 5 57 5 58 5 59 5 49 5 60 5 60 5 49 5 42 5 61 5 55 5 62 5 62 5 55 5 49 5 62 5 49 5 63 5 63 5 49 5 59 5 56 5 64 5 49 5 49 5 64 5 65 5 49 5 65 5 32 5 32 5 65 5 66 5 32 5 66 5 57 5 58 5 67 5 32 5 32 5 67 5 68 5 32 5 68 5 69 5 69 5 70 5 32 5 32 5 70 5 71 5 32 5 71 5 54 5 41 5 72 5 73 5 73 5 74 5 41 5 41 5 74 5 75 5 41 5 75 5 76 5 76 5 77 5 41 5 41 5 77 5 78 5 41 5 78 5 42 5 29 5 79 5 80 5 81 5 45 5 82 5 82 5 45 5 31 5 82 5 31 5 83 5 80 5 84 5 29 5 29 5 84 5 85 5 29 5 85 5 31 5 31 5 85 5 86 5 31 5 86 5 83 5 81 5 87 5 45 5 45 5 87 5 88 5 45 5 88 5 43 5 89 5 51 5 90 5 90 5 51 5 43 5 90 5 43 5 91 5 91 5 43 5 88 5 29 3 28 3 79 3 79 3 28 3 92 3 44 0 50 0 93 0 94 0 95 0 37 0 37 0 95 0 96 0 37 0 96 0 30 0 96 0 97 0 30 0 30 0 97 0 98 0 30 0 98 0 28 0 99 0 92 0 100 0 100 0 92 0 28 0 100 0 28 0 101 0 101 0 28 0 98 0 93 0 102 0 44 0 44 0 102 0 103 0 44 0 103 0 37 0 37 0 103 0 104 0 37 0 104 0 94 0 105 0 53 0 106 0 106 0 53 0 47 0 26 0 107 0 108 0 108 0 109 0 26 0 26 0 109 0 110 0 26 0 110 0 16 0 16 0 110 0 111 0 16 0 111 0 112 0 112 0 113 0 16 0 16 0 113 0 114 0 16 0 114 0 19 0 114 0 115 0 19 0 19 0 115 0 116 0 19 0 116 0 47 0 47 0 116 0 117 0 47 0 117 0 106 0 107 1 26 1 118 1 118 1 26 1 27 1 48 5 52 5 119 5 120 5 121 5 24 5 24 5 121 5 27 5 119 5 122 5 48 5 48 5 122 5 123 5 48 5 123 5 40 5 40 5 123 5 124 5 124 5 125 5 40 5 40 5 125 5 126 5 40 5 126 5 24 5 24 5 126 5 127 5 24 5 127 5 120 5 128 5 118 5 129 5 129 5 118 5 27 5 129 5 27 5 130 5 130 5 27 5 121 5 41 1 40 1 131 1 131 1 40 1 24 1 131 1 24 1 25 1 132 5 133 5 25 5 133 5 134 5 25 5 25 5 134 5 135 5 25 5 135 5 72 5 23 5 136 5 25 5 25 5 136 5 137 5 25 5 137 5 132 5 45 3 49 3 31 3 31 3 49 3 32 3 138 6 68 6 67 6 138 6 67 6 139 6 139 7 67 7 58 7 139 7 58 7 140 7 140 8 58 8 57 8 140 8 57 8 141 8 141 9 57 9 66 9 141 9 66 9 142 9 142 3 66 3 65 3 142 3 65 3 143 3 143 10 65 10 64 10 143 10 64 10 144 10 144 11 64 11 56 11 144 11 56 11 145 11 145 12 56 12 55 12 145 12 55 12 146 12 146 13 55 13 61 13 146 13 61 13 147 13 147 14 61 14 62 14 147 14 62 14 148 14 148 15 62 15 63 15 148 15 63 15 149 15 149 16 63 16 59 16 149 16 59 16 150 16 150 17 59 17 60 17 150 17 60 17 151 17 151 18 60 18 42 18 151 19 42 19 152 19 42 20 78 20 152 20 152 21 78 21 77 21 152 21 77 21 153 21 153 22 77 22 76 22 153 22 76 22 154 22 154 23 76 23 75 23 154 23 75 23 155 23 155 24 75 24 74 24 155 24 74 24 156 24 156 25 74 25 73 25 156 25 73 25 157 25 157 26 73 26 131 26 157 27 131 27 158 27 131 28 135 28 158 28 158 29 135 29 134 29 158 29 134 29 159 29 159 30 134 30 133 30 159 30 133 30 160 30 160 31 133 31 132 31 160 31 132 31 161 31 161 32 132 32 137 32 161 32 137 32 162 32 162 33 137 33 136 33 162 33 136 33 163 33 163 34 136 34 23 34 163 35 23 35 164 35 23 36 54 36 164 36 164 37 54 37 71 37 164 37 71 37 165 37 165 38 71 38 70 38 165 38 70 38 166 38 166 39 70 39 69 39 166 39 69 39 167 39 167 40 69 40 68 40 167 40 68 40 138 40 146 5 147 5 138 5 138 5 147 5 148 5 138 5 148 5 149 5 168 5 169 5 151 5 151 5 169 5 170 5 151 5 170 5 171 5 171 5 172 5 151 5 151 5 172 5 138 5 151 5 138 5 150 5 150 5 138 5 149 5 151 5 152 5 168 5 168 5 152 5 153 5 168 5 153 5 173 5 173 5 153 5 154 5 173 5 154 5 174 5 175 5 163 5 176 5 176 5 163 5 164 5 176 5 164 5 177 5 138 5 139 5 146 5 146 5 139 5 140 5 146 5 140 5 141 5 172 5 178 5 138 5 138 5 178 5 179 5 138 5 179 5 167 5 167 5 179 5 180 5 167 5 180 5 166 5 166 5 180 5 177 5 166 5 177 5 165 5 165 5 177 5 164 5 181 5 158 5 182 5 182 5 158 5 159 5 182 5 159 5 183 5 159 5 160 5 183 5 183 5 160 5 161 5 183 5 161 5 175 5 175 5 161 5 162 5 175 5 162 5 163 5 144 5 145 5 143 5 143 5 145 5 146 5 143 5 146 5 142 5 142 5 146 5 141 5 154 5 155 5 174 5 174 5 155 5 156 5 174 5 156 5 181 5 181 5 156 5 157 5 181 5 157 5 158 5 52 2 53 2 119 2 119 2 53 2 105 2 108 41 128 41 109 41 109 41 128 41 129 41 109 42 129 42 110 42 110 42 129 42 130 42 110 43 130 43 111 43 111 43 130 43 121 43 111 44 121 44 112 44 112 44 121 44 120 44 112 45 120 45 113 45 113 45 120 45 127 45 113 1 127 1 114 1 114 1 127 1 126 1 114 46 126 46 115 46 115 46 126 46 125 46 115 47 125 47 116 47 116 47 125 47 124 47 116 48 124 48 117 48 117 48 124 48 123 48 117 49 123 49 106 49 106 49 123 49 122 49 106 50 122 50 105 50 105 50 122 50 119 50 128 4 108 4 118 4 118 4 108 4 107 4 93 51 89 51 102 51 102 51 89 51 90 51 102 52 90 52 103 52 103 52 90 52 91 52 103 53 91 53 104 53 104 53 91 53 88 53 104 54 88 54 94 54 94 54 88 54 87 54 94 55 87 55 95 55 95 55 87 55 81 55 95 3 81 3 96 3 96 3 81 3 82 3 96 56 82 56 97 56 97 56 82 56 83 56 97 57 83 57 98 57 98 57 83 57 86 57 98 58 86 58 101 58 101 58 86 58 85 58 101 59 85 59 100 59 100 59 85 59 84 59 100 60 84 60 99 60 99 60 84 60 80 60 51 2 89 2 50 2 50 2 89 2 93 2 80 4 79 4 99 4 99 4 79 4 92 4 34 61 3 61 184 61 184 61 3 61 5 61 184 62 5 62 185 62 185 62 5 62 6 62 185 63 6 63 186 63 186 63 6 63 12 63 186 64 12 64 187 64 187 64 12 64 10 64 187 65 10 65 38 65 38 65 10 65 8 65 187 0 38 0 33 0 33 0 34 0 184 0 184 0 185 0 33 0 33 0 185 0 186 0 33 0 186 0 187 0 35 66 7 66 188 66 188 66 7 66 9 66 188 67 9 67 189 67 189 67 9 67 11 67 189 68 11 68 190 68 190 68 11 68 13 68 190 69 13 69 191 69 191 69 13 69 2 69 191 70 2 70 39 70 39 70 2 70 1 70 35 0 188 0 36 0 36 0 188 0 189 0 189 0 190 0 36 0 36 0 190 0 191 0 36 0 191 0 39 0 14 71 192 71 193 71 193 72 192 72 194 72 193 72 194 72 195 72 195 73 194 73 196 73 195 73 196 73 197 73 197 74 196 74 198 74 197 74 198 74 199 74 199 75 198 75 4 75 199 75 4 75 22 75 15 0 14 0 193 0 199 0 22 0 197 0 197 0 22 0 15 0 197 0 15 0 195 0 195 0 15 0 193 0 200 2 201 2 20 2 202 4 21 4 203 4 203 1 201 1 202 1 202 1 201 1 200 1 203 0 21 0 201 0 201 0 21 0 20 0 18 76 204 76 205 76 205 77 204 77 206 77 205 77 206 77 207 77 207 78 206 78 208 78 207 78 208 78 209 78 209 79 208 79 210 79 209 79 210 79 211 79 211 80 210 80 46 80 211 80 46 80 0 80 204 0 18 0 17 0 206 0 204 0 208 0 208 0 204 0 17 0 208 0 17 0 210 0 210 0 17 0 46 0 211 81 0 81 198 81 198 81 0 81 4 81 207 82 209 82 200 82 14 83 21 83 192 83 192 84 21 84 202 84 192 85 202 85 194 85 209 86 211 86 200 86 200 87 211 87 198 87 200 87 198 87 202 87 202 88 198 88 196 88 202 89 196 89 194 89 20 90 18 90 200 90 200 91 18 91 205 91 200 92 205 92 207 92 212 5 213 5 214 5 212 5 215 5 213 5 213 5 215 5 216 5 213 5 216 5 217 5 217 5 216 5 218 5 217 5 218 5 219 5 219 5 218 5 220 5 219 5 220 5 221 5 222 5 223 5 224 5 224 5 223 5 225 5 224 5 225 5 226 5 226 5 225 5 227 5 226 5 227 5 214 5 214 5 227 5 228 5 214 5 228 5 212 5 220 5 229 5 221 5 221 5 229 5 230 5 221 5 230 5 231 5 231 5 230 5 232 5 231 5 232 5 233 5 233 5 232 5 234 5 233 5 234 5 235 5 235 5 234 5 236 5 235 5 236 5 237 5 237 5 236 5 238 5 237 5 238 5 222 5 222 5 238 5 239 5 222 5 239 5 223 5 216 93 215 93 169 93 169 94 215 94 170 94 215 94 212 94 170 94 170 95 212 95 228 95 170 95 228 95 171 95 171 96 228 96 227 96 171 96 227 96 172 96 172 97 227 97 225 97 172 97 225 97 178 97 178 98 225 98 223 98 178 98 223 98 179 98 179 99 223 99 239 99 179 99 239 99 180 99 180 100 239 100 238 100 180 100 238 100 177 100 177 101 238 101 236 101 177 101 236 101 176 101 176 102 236 102 234 102 176 102 234 102 175 102 175 103 234 103 232 103 175 103 232 103 183 103 183 104 232 104 230 104 183 104 230 104 182 104 182 105 230 105 229 105 182 105 229 105 181 105 181 106 229 106 220 106 181 106 220 106 174 106 174 107 220 107 218 107 174 107 218 107 173 107 173 108 218 108 216 108 173 108 216 108 168 108 168 93 216 93 169 93 235 109 240 109 233 109 233 109 240 109 241 109 233 110 241 110 231 110 231 110 241 110 242 110 231 111 242 111 221 111 221 111 242 111 243 111 221 112 243 112 219 112 219 112 243 112 244 112 219 113 244 113 217 113 217 113 244 113 245 113 217 114 245 114 213 114 213 114 245 114 246 114 213 115 246 115 214 115 214 115 246 115 247 115 214 116 247 116 226 116 226 116 247 116 248 116 226 117 248 117 224 117 224 117 248 117 249 117 224 118 249 118 222 118 222 118 249 118 250 118 222 119 250 119 237 119 237 119 250 119 251 119 237 120 251 120 235 120 235 120 251 120 240 120 248 5 247 5 252 5 252 5 247 5 246 5 252 5 246 5 245 5 251 5 250 5 252 5 252 5 250 5 249 5 252 5 249 5 248 5 242 5 241 5 252 5 252 5 241 5 240 5 252 5 240 5 251 5 245 5 244 5 252 5 252 5 244 5 243 5 252 5 243 5 242 5</p>
        </triangles>
      </mesh>
    </geometry>
  </library_geometries>
  <library_visual_scenes>
    <visual_scene id="DefaultScene">
      <node id="node_ff42a97a_ced3_4620_b9ca_cf12b4c92920" type="NODE">
        <matrix>1 0 0 0 0 1 0 0 0 0 1 0 0 0 0 1</matrix>
        <node id="node_e3172dad_c6d4_485f_a0cb_580befb3acc1" type="NODE">
          <matrix>1 0 0 0 0 1 0 0 0 0 1 0 0 0 0 1</matrix>
          <node id="node_e3172dad_c6d4_485f_a0cb_580befb3acc1_mesh0" type="NODE">
            <matrix>1 0 0 0 0 1 0 0 0 0 1 0 0 0 0 1</matrix>
            <instance_geometry url="#geometry_1249f932_46e4_42a7_a041_f2d5dd24747b">
              <bind_material>
                <technique_common>
                  <instance_material symbol="mat_0" target="#mat_0"/>
                </technique_common>
              </bind_material>
            </instance_geometry>
          </node>
        </node>
      </node>
    </visual_scene>
  </library_visual_scenes>
  <scene>
    <instance_visual_scene url="#DefaultScene"/>
  </scene>
</COLLADA>
