<?xml version="1.0" encoding="utf-8" ?>
<COLLADA xmlns="http://www.collada.org/2005/11/COLLADASchema" version="1.4.1">
    <asset>
        <contributor>
            <authoring_tool>ctmconv</authoring_tool>
            <comments>VCG                                                                             </comments>
        </contributor>
        <created>2025-08-27T14:21:52</created>
        <modified>2025-08-27T14:21:52</modified>
    </asset>
    <library_geometries>
        <geometry id="Mesh-1" name="Mesh-1">
            <mesh>
                <source id="Mesh-1-positions" name="position">
                    <float_array id="Mesh-1-positions-array" count="525">-0.04 -0.0825 0.015 -0.04 -0.0817658 0.0103647 -0.04 -0.0817658 0.0196353 -0.04 -0.0796353 0.00618322 -0.04 -0.0796353 0.0238168 -0.04 -0.0763168 0.00286474 -0.04 -0.0763168 0.0271353 -0.04 -0.0721353 0.000734152 -0.04 -0.0721353 0.0292658 -0.04 -0.0675 0 -0.04 -0.0675 0.03 -0.04 0.0675 0 -0.04 0.0675 0.03 -0.04 0.0721353 0.000734152 -0.04 0.0721353 0.0292658 -0.04 0.0763168 0.00286474 -0.04 0.0763168 0.0271353 -0.04 0.0796353 0.00618322 -0.04 0.0796353 0.0238168 -0.04 0.0817658 0.0103647 -0.04 0.0817658 0.0196353 -0.04 0.0825 0.015 -0.0026 -0.0446 0.015 -0.0026 -0.0438969 0.0119194 -0.0026 -0.0438969 0.0180806 -0.0026 -0.0419268 0.009449 -0.0026 -0.0419268 0.020551 -0.0026 -0.0390799 0.00807801 -0.0026 -0.0390799 0.021922 -0.0026 -0.0359201 0.00807801 -0.0026 -0.0359201 0.021922 -0.0026 -0.0330732 0.009449 -0.0026 -0.0330732 0.020551 -0.0026 -0.0311031 0.0119194 -0.0026 -0.0311031 0.0180806 -0.0026 -0.0304 0.015 -0.0026 0.0054 0.015 -0.0026 0.00610312 0.0119194 -0.0026 0.00610312 0.0180806 -0.0026 0.00807322 0.009449 -0.0026 0.00807322 0.020551 -0.0026 0.0109201 0.00807801 -0.0026 0.0109201 0.021922 -0.0026 0.0140799 0.00807801 -0.0026 0.0140799 0.021922 -0.0026 0.0169268 0.009449 -0.0026 0.0169268 0.020551 -0.0026 0.0188969 0.0119194 -0.0026 0.0188969 0.0180806 -0.0026 0.0196 0.015 -0.0026 0.0304 0.015 -0.0026 0.0311031 0.0119194 -0.0026 0.0311031 0.0180806 -0.0026 0.0330732 0.009449 -0.0026 0.0330732 0.020551 -0.0026 0.0359201 0.00807801 -0.0026 0.0359201 0.021922 -0.0026 0.0390799 0.00807801 -0.0026 0.0390799 0.021922 -0.0026 0.0419268 0.009449 -0.0026 0.0419268 0.020551 -0.0026 0.0438969 0.0119194 -0.0026 0.0438969 0.0180806 -0.0026 0.0446 0.015 -0.0015 -0.0799 0.015 -0.0015 -0.0792931 0.0111682 -0.0015 -0.0792931 0.0188318 -0.0015 -0.0775318 0.00771146 -0.0015 -0.0775318 0.0222885 -0.0015 -0.0747885 0.00496819 -0.0015 -0.0747885 0.0250318 -0.0015 -0.0713318 0.0032069 -0.0015 -0.0713318 0.0267931 -0.0015 -0.0675 0.0026 -0.0015 -0.0675 0.0274 -0.0015 -0.0446 0.015 -0.0015 -0.0438969 0.0119194 -0.0015 -0.0438969 0.0180806 -0.0015 -0.0419268 0.009449 -0.0015 -0.0419268 0.020551 -0.0015 -0.0390799 0.00807801 -0.0015 -0.0390799 0.021922 -0.0015 -0.0359201 0.00807801 -0.0015 -0.0359201 0.021922 -0.0015 -0.0330732 0.009449 -0.0015 -0.0330732 0.020551 -0.0015 -0.0311031 0.0119194 -0.0015 -0.0311031 0.0180806 -0.0015 -0.0304 0.015 -0.0015 0.0054 0.015 -0.0015 0.00610312 0.0119194 -0.0015 0.00610312 0.0180806 -0.0015 0.00807322 0.009449 -0.0015 0.00807322 0.020551 -0.0015 0.0109201 0.00807801 -0.0015 0.0109201 0.021922 -0.0015 0.0140799 0.00807801 -0.0015 0.0140799 0.021922 -0.0015 0.0169268 0.009449 -0.0015 0.0169268 0.020551 -0.0015 0.0188969 0.0119194 -0.0015 0.0188969 0.0180806 -0.0015 0.0196 0.015 -0.0015 0.0304 0.015 -0.0015 0.0311031 0.0119194 -0.0015 0.0311031 0.0180806 -0.0015 0.0330732 0.009449 -0.0015 0.0330732 0.020551 -0.0015 0.0359201 0.00807801 -0.0015 0.0359201 0.021922 -0.0015 0.0390799 0.00807801 -0.0015 0.0390799 0.021922 -0.0015 0.0419268 0.009449 -0.0015 0.0419268 0.020551 -0.0015 0.0438969 0.0119194 -0.0015 0.0438969 0.0180806 -0.0015 0.0446 0.015 -0.0015 0.0675 0.0026 -0.0015 0.0675 0.0274 -0.0015 0.0713318 0.0032069 -0.0015 0.0713318 0.0267931 -0.0015 0.0747885 0.00496819 -0.0015 0.0747885 0.0250318 -0.0015 0.0775318 0.00771146 -0.0015 0.0775318 0.0222885 -0.0015 0.0792931 0.0111682 -0.0015 0.0792931 0.0188318 -0.0015 0.0799 0.015 -8.67362e-18 0.0675 0.0011 -8.67362e-18 0.0675 0.0289 -1.73472e-18 -0.0675 0.0011 0 -0.0825 0.015 0 -0.0817658 0.0103647 0 -0.0817658 0.0196353 0 -0.0814 0.015 0 -0.0807197 0.0107047 0 -0.0807197 0.0192953 0 -0.0796353 0.00618322 0 -0.0796353 0.0238168 0 -0.0787453 0.00682978 0 -0.0787453 0.0231702 0 -0.0763168 0.00286474 0 -0.0763168 0.0271353 0 -0.0756702 0.00375466 0 -0.0756702 0.0262453 0 -0.0721353 0.000734152 0 -0.0721353 0.0292658 0 -0.0717953 0.00178031 0 -0.0717953 0.0282197 0 -0.0675 0 0 -0.0675 0.0011 0 -0.0675 0.0289 0 -0.0675 0.03 0 0.0675 0 0 0.0675 0.0011 0 0.0675 0.0289 0 0.0675 0.03 0 0.0717953 0.00178031 0 0.0717953 0.0282197 0 0.0721353 0.000734152 0 0.0721353 0.0292658 0 0.0756702 0.00375466 0 0.0756702 0.0262453 0 0.0763168 0.00286474 0 0.0763168 0.0271353 0 0.0787453 0.00682978 0 0.0787453 0.0231702 0 0.0796353 0.00618322 0 0.0796353 0.0238168 0 0.0807197 0.0107047 0 0.0807197 0.0192953 0 0.0814 0.015 0 0.0817658 0.0103647 0 0.0817658 0.0196353 0 0.0825 0.015 </float_array>
                    <technique_common>
                        <accessor count="175" offset="0" source="#Mesh-1-positions-array" stride="3">
                            <param name="X" type="float" />
                            <param name="Y" type="float" />
                            <param name="Z" type="float" />
                        </accessor>
                    </technique_common>
                </source>
                <vertices id="Mesh-1-vertices">
                    <input semantic="POSITION" source="#Mesh-1-positions" />
                </vertices>
                <triangles count="340">
                    <input offset="0" semantic="VERTEX" source="#Mesh-1-vertices" />
                    <p>12 156 160 12 160 14 14 160 164 14 164 16 16 164 168 16 168 18 18 168 173 18 173 20 20 173 174 20 174 21 21 174 172 21 172 19 19 172 167 19 167 17 17 167 163 17 163 15 15 163 159 15 159 13 13 159 153 13 153 11 9 11 149 149 11 153 9 149 145 9 145 7 7 145 141 7 141 5 5 141 137 5 137 3 3 137 132 3 132 1 1 132 131 1 131 0 0 131 133 0 133 2 2 133 138 2 138 4 4 138 142 4 142 6 6 142 146 6 146 8 8 146 152 8 152 10 12 10 156 156 10 152 19 17 11 11 17 15 11 15 13 12 14 11 11 14 16 11 16 18 12 11 10 10 11 9 10 9 7 7 5 10 10 5 3 10 3 1 2 4 6 18 20 11 11 20 21 11 21 19 1 0 10 10 0 2 10 2 8 8 2 6 151 152 148 148 152 146 148 146 144 144 146 142 144 142 140 140 142 138 140 138 136 136 138 133 136 133 134 134 133 131 134 131 135 135 131 132 135 132 139 139 132 137 139 137 143 143 137 141 143 141 147 147 141 145 147 145 150 150 145 149 150 149 154 154 149 153 154 153 157 157 153 159 157 159 161 161 159 163 161 163 165 165 163 167 165 167 169 169 167 172 169 172 171 171 172 174 171 174 170 170 174 173 170 173 166 166 173 168 166 168 162 162 168 164 162 164 158 158 164 160 158 160 155 155 160 156 155 156 151 151 156 152 121 116 119 119 116 114 119 114 117 117 114 112 121 123 125 105 99 101 126 124 116 121 125 116 116 125 127 116 127 126 105 101 103 103 101 102 103 102 104 100 108 102 102 108 106 102 106 104 93 95 74 124 122 116 116 122 120 116 120 115 115 120 118 115 118 113 94 92 88 88 92 90 88 90 87 87 90 89 99 105 97 97 105 107 97 107 109 100 98 108 108 98 117 108 117 110 110 117 112 74 72 77 77 72 75 77 79 74 74 79 81 74 81 83 72 70 75 75 70 68 75 68 66 93 74 91 91 74 83 91 83 89 89 83 85 89 85 87 95 97 74 74 97 109 74 109 118 118 109 111 118 111 113 88 86 94 94 86 117 94 117 96 96 117 98 80 73 82 82 73 117 82 117 84 84 117 86 66 64 75 75 64 65 75 65 67 80 78 73 73 78 76 73 76 71 71 76 75 71 75 69 69 75 67 74 151 72 72 151 148 72 148 70 70 148 144 70 144 68 68 144 140 68 140 66 66 140 136 66 136 64 64 136 134 64 134 65 65 134 135 65 135 67 67 135 139 67 139 69 69 139 143 69 143 71 71 143 147 71 147 73 73 147 150 74 118 151 151 118 129 117 154 119 119 154 157 119 157 121 121 157 161 121 161 123 123 161 165 123 165 125 125 165 169 125 169 127 127 169 171 127 171 126 126 171 170 126 170 124 124 170 166 124 166 122 122 166 162 122 162 120 120 162 158 120 158 118 118 158 155 117 73 128 128 73 130 39 48 37 37 48 46 47 49 45 45 49 48 45 48 43 43 48 39 43 39 41 38 36 40 40 36 37 40 37 42 42 37 46 42 46 44 47 102 49 49 102 101 49 101 48 48 101 99 48 99 46 46 99 97 46 97 44 44 97 95 44 95 42 42 95 93 42 93 40 40 93 91 40 91 38 38 91 89 38 89 36 36 89 90 36 90 37 37 90 92 37 92 39 39 92 94 39 94 41 41 94 96 41 96 43 43 96 98 43 98 45 45 98 100 45 100 47 47 100 102 31 33 24 24 33 35 24 35 34 24 22 23 27 29 31 28 26 30 30 26 24 30 24 32 32 24 34 31 24 27 27 24 23 27 23 25 33 88 35 35 88 87 35 87 34 34 87 85 34 85 32 32 85 83 32 83 30 30 83 81 30 81 28 28 81 79 28 79 26 26 79 77 26 77 24 24 77 75 24 75 22 22 75 76 22 76 23 23 76 78 23 78 25 25 78 80 25 80 27 27 80 82 27 82 29 29 82 84 29 84 31 31 84 86 31 86 33 33 86 88 52 61 63 57 59 55 55 59 61 56 54 58 58 54 52 58 52 60 60 52 63 60 63 62 53 55 51 51 55 61 51 61 50 50 61 52 61 116 63 63 116 115 63 115 62 62 115 113 62 113 60 60 113 111 60 111 58 58 111 109 58 109 56 56 109 107 56 107 54 54 107 105 54 105 52 52 105 103 52 103 50 50 103 104 50 104 51 51 104 106 51 106 53 53 106 108 53 108 55 55 108 110 55 110 57 57 110 112 57 112 59 59 112 114 59 114 61 61 114 116 </p>
                </triangles>
            </mesh>
        </geometry>
    </library_geometries>
    <library_visual_scenes>
        <visual_scene id="Scene-1" name="Scene-1">
            <node id="Object-1" name="Object-1">
                <instance_geometry url="#Mesh-1" />
            </node>
        </visual_scene>
    </library_visual_scenes>
    <scene>
        <instance_visual_scene url="#Scene-1" />
    </scene>
</COLLADA>
